<svg xmlns="http://www.w3.org/2000/svg" xmlns:xlink="http://www.w3.org/1999/xlink" contentStyleType="text/css" data-diagram-type="DESCRIPTION" height="767px" preserveAspectRatio="none" style="width:3118px;height:767px;background:#FFFFFF;" version="1.1" viewBox="0 0 3118 767" width="3118px" zoomAndPan="magnify"><?plantuml 1.2026.3beta6?><defs/><g><!--cluster C_WS--><g class="cluster" data-qualified-name="C_WS" data-source-line="3" id="ent0002"><rect fill="none" height="119.89" rx="2.5" ry="2.5" style="stroke:#181818;stroke-width:1;" width="430" x="1548.53" y="7"/><text fill="#000000" font-family="sans-serif" font-size="14" font-weight="700" lengthAdjust="spacing" textLength="172.6826" x="1677.1887" y="21.9951">Operator Workstation</text></g><!--cluster C_CP--><g class="cluster" data-qualified-name="C_CP" data-source-line="7" id="ent0004"><rect fill="none" height="278.64" rx="2.5" ry="2.5" style="stroke:#181818;stroke-width:1;" width="2080" x="1024.53" y="175.89"/><text fill="#000000" font-family="sans-serif" font-size="14" font-weight="700" lengthAdjust="spacing" textLength="131.1475" x="1998.9563" y="190.8851">Control Platform</text></g><!--cluster C_Field--><g class="cluster" data-qualified-name="C_Field" data-source-line="20" id="ent0014"><rect fill="none" height="249.48" rx="2.5" ry="2.5" style="stroke:#181818;stroke-width:1;" width="532" x="1025.53" y="503.53"/><text fill="#000000" font-family="sans-serif" font-size="14" font-weight="700" lengthAdjust="spacing" textLength="74.6211" x="1254.2195" y="518.5251">Field Site</text></g><!--cluster C_External--><g class="cluster" data-qualified-name="C_External" data-source-line="25" id="ent0017"><rect fill="none" height="103.6" rx="2.5" ry="2.5" style="stroke:#181818;stroke-width:1;" width="290" x="710.53" y="342.78"/><text fill="#000000" font-family="sans-serif" font-size="14" font-weight="700" lengthAdjust="spacing" textLength="185.7939" x="762.633" y="357.7751">External Export System</text></g><!--entity CON_GUI--><g class="entity" data-qualified-name="C_WS.CON_GUI" data-source-line="4" id="ent0003"><rect fill="#F1F1F1" height="68.8906" rx="2.5" ry="2.5" style="stroke:#181818;stroke-width:0.5;" width="397.959" x="1564.55" y="42"/><text fill="#000000" font-family="sans-serif" font-size="14" lengthAdjust="spacing" textLength="98.0889" x="1574.55" y="64.9951">GUI Container</text><text fill="#000000" font-family="sans-serif" font-size="14" lengthAdjust="spacing" textLength="87.9648" x="1574.55" y="81.292">[OperatorUI]</text><text fill="#000000" font-family="sans-serif" font-size="14" lengthAdjust="spacing" textLength="377.959" x="1574.55" y="97.5889">Responsibilities: command entry, prompts, live status</text></g><!--entity CON_ControlAPI--><g class="entity" data-qualified-name="C_CP.CON_ControlAPI" data-source-line="8" id="ent0005"><rect fill="#F1F1F1" height="68.8906" rx="2.5" ry="2.5" style="stroke:#181818;stroke-width:0.5;" width="395.1016" x="1854.98" y="210.89"/><text fill="#000000" font-family="sans-serif" font-size="14" lengthAdjust="spacing" textLength="145.9268" x="1864.98" y="233.8851">ControlAPI Container</text><text fill="#000000" font-family="sans-serif" font-size="14" lengthAdjust="spacing" textLength="133.793" x="1864.98" y="250.182">[CommandControl]</text><text fill="#000000" font-family="sans-serif" font-size="14" lengthAdjust="spacing" textLength="375.1016" x="1864.98" y="266.4789">Responsibilities: validate, orchestrate, publish events</text></g><!--entity CON_Safety--><g class="entity" data-qualified-name="C_CP.CON_Safety" data-source-line="9" id="ent0006"><rect fill="#F1F1F1" height="68.8906" rx="2.5" ry="2.5" style="stroke:#181818;stroke-width:0.5;" width="396.4141" x="1398.32" y="369.64"/><text fill="#000000" font-family="sans-serif" font-size="14" lengthAdjust="spacing" textLength="169.3877" x="1408.32" y="392.6351">SafetyService Container</text><text fill="#000000" font-family="sans-serif" font-size="14" lengthAdjust="spacing" textLength="79.3379" x="1408.32" y="408.932">[Interlocks]</text><text fill="#000000" font-family="sans-serif" font-size="14" lengthAdjust="spacing" textLength="376.4141" x="1408.32" y="425.2289">Responsibilities: layered safety screening, abort rules</text></g><!--entity CON_Telemetry--><g class="entity" data-qualified-name="C_CP.CON_Telemetry" data-source-line="10" id="ent0007"><rect fill="#F1F1F1" height="68.8906" rx="2.5" ry="2.5" style="stroke:#181818;stroke-width:0.5;" width="443.6162" x="1829.72" y="369.64"/><text fill="#000000" font-family="sans-serif" font-size="14" lengthAdjust="spacing" textLength="196.0547" x="1839.72" y="392.6351">TelemetryService Container</text><text fill="#000000" font-family="sans-serif" font-size="14" lengthAdjust="spacing" textLength="94.124" x="1839.72" y="408.932">[FreshStatus]</text><text fill="#000000" font-family="sans-serif" font-size="14" lengthAdjust="spacing" textLength="423.6162" x="1839.72" y="425.2289">Responsibilities: read controller telemetry, create snapshots</text></g><!--entity CON_Auth--><g class="entity" data-qualified-name="C_CP.CON_Auth" data-source-line="11" id="ent0008"><rect fill="#F1F1F1" height="68.8906" rx="2.5" ry="2.5" style="stroke:#181818;stroke-width:0.5;" width="354.0381" x="1040.51" y="210.89"/><text fill="#000000" font-family="sans-serif" font-size="14" lengthAdjust="spacing" textLength="157.418" x="1050.51" y="233.8851">AuthService Container</text><text fill="#000000" font-family="sans-serif" font-size="14" lengthAdjust="spacing" textLength="111.4805" x="1050.51" y="250.182">[SecurityCheck]</text><text fill="#000000" font-family="sans-serif" font-size="14" lengthAdjust="spacing" textLength="334.0381" x="1050.51" y="266.4789">Responsibilities: authentication, token issuance</text></g><!--entity CON_Lease--><g class="entity" data-qualified-name="C_CP.CON_Lease" data-source-line="12" id="ent0009"><rect fill="#F1F1F1" height="68.8906" rx="2.5" ry="2.5" style="stroke:#181818;stroke-width:0.5;" width="390.3984" x="1429.33" y="210.89"/><text fill="#000000" font-family="sans-serif" font-size="14" lengthAdjust="spacing" textLength="165.5049" x="1439.33" y="233.8851">LeaseService Container</text><text fill="#000000" font-family="sans-serif" font-size="14" lengthAdjust="spacing" textLength="83.9932" x="1439.33" y="250.182">[LeaseLock]</text><text fill="#000000" font-family="sans-serif" font-size="14" lengthAdjust="spacing" textLength="370.3984" x="1439.33" y="266.4789">Responsibilities: single-operator lease/renew/release</text></g><!--entity CON_Export--><g class="entity" data-qualified-name="C_CP.CON_Export" data-source-line="13" id="ent0010"><rect fill="#F1F1F1" height="68.8906" rx="2.5" ry="2.5" style="stroke:#181818;stroke-width:0.5;" width="358.0645" x="2285.5" y="210.89"/><text fill="#000000" font-family="sans-serif" font-size="14" lengthAdjust="spacing" textLength="140.8408" x="2295.5" y="233.8851">ExportAPI Container</text><text fill="#000000" font-family="sans-serif" font-size="14" lengthAdjust="spacing" textLength="115.9648" x="2295.5" y="250.182">[OneWayExport]</text><text fill="#000000" font-family="sans-serif" font-size="14" lengthAdjust="spacing" textLength="338.0645" x="2295.5" y="266.4789">Responsibilities: export telemetry payloads only</text></g><!--entity CON_EventBus--><g class="entity" data-qualified-name="C_CP.CON_EventBus" data-source-line="15" id="ent0011"><rect fill="#F1F1F1" height="68.8906" rx="2.5" ry="2.5" style="stroke:#181818;stroke-width:0.5;" width="433.2324" x="2307.91" y="369.64"/><text fill="#000000" font-family="sans-serif" font-size="14" lengthAdjust="spacing" textLength="138.7422" x="2317.91" y="392.6351">EventBus Container</text><text fill="#000000" font-family="sans-serif" font-size="14" lengthAdjust="spacing" textLength="57.3262" x="2317.91" y="408.932">[Broker]</text><text fill="#000000" font-family="sans-serif" font-size="14" lengthAdjust="spacing" textLength="413.2324" x="2317.91" y="425.2289">Responsibilities: pub/sub for telemetry + command events</text></g><!--entity CON_AuditDB--><g class="entity" data-qualified-name="C_CP.CON_AuditDB" data-source-line="16" id="ent0012"><rect fill="#F1F1F1" height="68.8906" rx="2.5" ry="2.5" style="stroke:#181818;stroke-width:0.5;" width="322.7295" x="1040.16" y="369.64"/><text fill="#000000" font-family="sans-serif" font-size="14" lengthAdjust="spacing" textLength="86.8027" x="1050.16" y="392.6351">AuditLog DB</text><text fill="#000000" font-family="sans-serif" font-size="14" lengthAdjust="spacing" textLength="86.6592" x="1050.16" y="408.932">[Immutable]</text><text fill="#000000" font-family="sans-serif" font-size="14" lengthAdjust="spacing" textLength="302.7295" x="1050.16" y="425.2289">Responsibilities: append-only audit records</text></g><!--entity CON_ExportDB--><g class="entity" data-qualified-name="C_CP.CON_ExportDB" data-source-line="17" id="ent0013"><rect fill="#F1F1F1" height="68.8906" rx="2.5" ry="2.5" style="stroke:#181818;stroke-width:0.5;" width="312.8037" x="2776.13" y="369.64"/><text fill="#000000" font-family="sans-serif" font-size="14" lengthAdjust="spacing" textLength="107.9736" x="2786.13" y="392.6351">ExportStore DB</text><text fill="#000000" font-family="sans-serif" font-size="14" lengthAdjust="spacing" textLength="56.752" x="2786.13" y="408.932">[Export]</text><text fill="#000000" font-family="sans-serif" font-size="14" lengthAdjust="spacing" textLength="292.8037" x="2786.13" y="425.2289">Responsibilities: persist exported batches</text></g><!--entity CON_Adapter--><g class="entity" data-qualified-name="C_Field.CON_Adapter" data-source-line="21" id="ent0015"><rect fill="#F1F1F1" height="68.8906" rx="2.5" ry="2.5" style="stroke:#181818;stroke-width:0.5;" width="500.4023" x="1041.33" y="538.53"/><text fill="#000000" font-family="sans-serif" font-size="14" lengthAdjust="spacing" textLength="197.8252" x="1051.33" y="561.5251">ControllerAdapter Container</text><text fill="#000000" font-family="sans-serif" font-size="14" lengthAdjust="spacing" textLength="128.1191" x="1051.33" y="577.822">[ProtocolContract]</text><text fill="#000000" font-family="sans-serif" font-size="14" lengthAdjust="spacing" textLength="480.4023" x="1051.33" y="594.1189">Responsibilities: versioned protocol, command/telemetry translation</text></g><!--entity CON_Controller--><g class="entity" data-qualified-name="C_Field.CON_Controller" data-source-line="22" id="ent0016"><rect fill="#F1F1F1" height="52.5938" rx="2.5" ry="2.5" style="stroke:#181818;stroke-width:0.5;" width="389.3252" x="1096.87" y="684.42"/><text fill="#000000" font-family="sans-serif" font-size="14" lengthAdjust="spacing" textLength="106.9551" x="1106.87" y="707.4151">Field Controller</text><text fill="#000000" font-family="sans-serif" font-size="14" lengthAdjust="spacing" textLength="369.3252" x="1106.87" y="723.712">Responsibilities: execute commands, emit telemetry</text></g><!--entity CON_ExternalExport--><g class="entity" data-qualified-name="C_External.CON_ExternalExport" data-source-line="26" id="ent0018"><rect fill="#F1F1F1" height="52.5938" rx="2.5" ry="2.5" style="stroke:#181818;stroke-width:0.5;" width="257.0361" x="727.01" y="377.78"/><text fill="#000000" font-family="sans-serif" font-size="14" lengthAdjust="spacing" textLength="98.0342" x="737.01" y="400.7751">ExportSystem</text><text fill="#000000" font-family="sans-serif" font-size="14" lengthAdjust="spacing" textLength="237.0361" x="737.01" y="417.072">Responsibilities: receive payloads</text></g><g class="entity" data-qualified-name="GMN34" data-source-line="48" id="ent0035"><path d="M1577.12,552.84 L1577.12,568.97 L1541.93,572.97 L1577.12,576.97 L1577.12,593.1056 A0,0 0 0 0 1577.12,593.1056 L1929.931,593.1056 A0,0 0 0 0 1929.931,593.1056 L1929.931,562.84 L1919.931,552.84 L1577.12,552.84 A0,0 0 0 0 1577.12,552.84" fill="#FEFFDD" style="stroke:#181818;stroke-width:0.5;"/><path d="M1919.931,552.84 L1919.931,562.84 L1929.931,562.84 L1919.931,552.84" fill="#FEFFDD" style="stroke:#181818;stroke-width:0.5;"/><text fill="#000000" font-family="sans-serif" font-size="13" lengthAdjust="spacing" textLength="156.4697" x="1583.12" y="569.9069">Contract-first boundary:</text><text fill="#000000" font-family="sans-serif" font-size="13" lengthAdjust="spacing" textLength="331.811" x="1583.12" y="585.0397">versioned schemas + stubs to unblock integration.</text></g><g class="entity" data-qualified-name="GMN37" data-source-line="53" id="ent0038"><path d="M163.19,391.51 L163.19,416.6428 L691.8629,416.6428 L691.8629,401.51 L681.8629,391.51 L163.19,391.51" fill="#FEFFDD" style="stroke:#181818;stroke-width:0.5;"/><path d="M681.8629,391.51 L681.8629,401.51 L691.8629,401.51 L681.8629,391.51" fill="#FEFFDD" style="stroke:#181818;stroke-width:1;"/><text fill="#000000" font-family="sans-serif" font-size="13" lengthAdjust="spacing" textLength="507.6729" x="169.19" y="408.5769">Lease/lock prevents concurrent operators from issuing conflicting commands.</text></g><!--link CON_GUI to CON_Auth--><g class="link" data-entity-1="ent0003" data-entity-2="ent0008" data-link-type="dependency" data-source-line="29" id="lnk19"><path d="M1614.64,111.37 C1551.49,126.87 1477.4,146.54 1411.53,167.89 C1373.3,180.28 1337.307,194.0373 1302.507,208.2073" fill="none" id="CON_GUI-to-CON_Auth" style="stroke:#181818;stroke-width:1;"/><polygon fill="#181818" points="1296.95,210.47,1306.794,210.7806,1301.5808,208.5844,1303.777,203.3713,1296.95,210.47" style="stroke:#181818;stroke-width:1;"/><text fill="#000000" font-family="sans-serif" font-size="13" lengthAdjust="spacing" textLength="82.6973" x="1488.53" y="155.9569">authenticate</text></g><!--link CON_GUI to CON_Lease--><g class="link" data-entity-1="ent0003" data-entity-2="ent0009" data-link-type="dependency" data-source-line="30" id="lnk20"><path d="M1735.4,111.22 C1711.28,140.18 1680.5595,177.0694 1656.4595,206.0094" fill="none" id="CON_GUI-to-CON_Lease" style="stroke:#181818;stroke-width:1;"/><polygon fill="#181818" points="1652.62,210.62,1661.4531,206.2637,1655.8196,206.7778,1655.3056,201.1444,1652.62,210.62" style="stroke:#181818;stroke-width:1;"/><text fill="#000000" font-family="sans-serif" font-size="13" lengthAdjust="spacing" textLength="86.5376" x="1706.53" y="155.9569">acquireLease</text></g><!--link CON_GUI to CON_ControlAPI--><g class="link" data-entity-1="ent0003" data-entity-2="ent0005" data-link-type="dependency" data-source-line="31" id="lnk21"><path d="M1822.01,111.22 C1872.15,140.18 1938.8243,178.6793 1988.9343,207.6193" fill="none" id="CON_GUI-to-CON_ControlAPI" style="stroke:#181818;stroke-width:1;"/><polygon fill="#181818" points="1994.13,210.62,1988.3368,202.6551,1989.8002,208.1194,1984.3359,209.5828,1994.13,210.62" style="stroke:#181818;stroke-width:1;"/><text fill="#000000" font-family="sans-serif" font-size="13" lengthAdjust="spacing" textLength="111.4521" x="1899.53" y="155.9569">submitCommand</text></g><!--link CON_ControlAPI to CON_Telemetry--><g class="link" data-entity-1="ent0005" data-entity-2="ent0007" data-link-type="dependency" data-source-line="32" id="lnk22"><path d="M2050,280.23 C2049.39,289.78 2048.83,300.19 2048.53,309.78 C2047.91,329.54 2048.2728,345.6669 2049.1228,363.4069" fill="none" id="CON_ControlAPI-to-CON_Telemetry" style="stroke:#181818;stroke-width:1;"/><polygon fill="#181818" points="2049.41,369.4,2052.9747,360.2189,2049.1707,364.4057,2044.9838,360.6018,2049.41,369.4" style="stroke:#181818;stroke-width:1;"/><text fill="#000000" font-family="sans-serif" font-size="13" lengthAdjust="spacing" textLength="93.8311" x="2049.53" y="322.8469">fetchSnapshot</text></g><!--link CON_ControlAPI to CON_Safety--><g class="link" data-entity-1="ent0005" data-entity-2="ent0006" data-link-type="dependency" data-source-line="33" id="lnk23"><path d="M1953.87,280.25 C1877.27,306.58 1777.2342,340.9698 1700.6842,367.2798" fill="none" id="CON_ControlAPI-to-CON_Safety" style="stroke:#181818;stroke-width:1;"/><polygon fill="#181818" points="1695.01,369.23,1704.8215,370.0875,1699.7385,367.6048,1702.2212,362.5219,1695.01,369.23" style="stroke:#181818;stroke-width:1;"/><text fill="#000000" font-family="sans-serif" font-size="13" lengthAdjust="spacing" textLength="120.0977" x="1865.53" y="322.8469">evaluateInterlocks</text></g><!--link CON_ControlAPI to CON_AuditDB--><g class="link" data-entity-1="ent0005" data-entity-2="ent0012" data-link-type="dependency" data-source-line="34" id="lnk24"><path d="M1854.58,277.39 C1848.84,278.21 1843.14,279.01 1837.53,279.78 C1634.87,307.73 1579.14,285.73 1380.53,334.78 C1345.98,343.32 1314.6041,354.4048 1283.3041,367.0348" fill="none" id="CON_ControlAPI-to-CON_AuditDB" style="stroke:#181818;stroke-width:1;"/><polygon fill="#181818" points="1277.74,369.28,1287.5829,369.6216,1282.3767,367.409,1284.5893,362.2028,1277.74,369.28" style="stroke:#181818;stroke-width:1;"/><text fill="#000000" font-family="sans-serif" font-size="13" lengthAdjust="spacing" textLength="83.0527" x="1503.53" y="322.8469">appendAudit</text></g><!--link CON_ControlAPI to CON_EventBus--><g class="link" data-entity-1="ent0005" data-entity-2="ent0011" data-link-type="dependency" data-source-line="35" id="lnk25"><path d="M2192.67,280.26 C2225.66,289.11 2260.52,299.16 2292.53,309.78 C2344.96,327.18 2397.0626,348.0059 2441.7726,366.8859" fill="none" id="CON_ControlAPI-to-CON_EventBus" style="stroke:#181818;stroke-width:1;"/><polygon fill="#181818" points="2447.3,369.22,2440.565,362.0339,2442.6938,367.2749,2437.4529,369.4038,2447.3,369.22" style="stroke:#181818;stroke-width:1;"/><text fill="#000000" font-family="sans-serif" font-size="13" lengthAdjust="spacing" textLength="90.9937" x="2338.53" y="322.8469">publishEvents</text></g><!--link CON_Telemetry to CON_Adapter--><g class="link" data-entity-1="ent0007" data-entity-2="ent0015" data-link-type="dependency" data-source-line="36" id="lnk26"><path d="M1921.51,438.98 C1886.3,447.43 1848.09,455.95 1812.53,462.53 C1701.02,483.14 1670.58,472.58 1559.53,495.53 C1505.16,506.76 1451.4239,521.5456 1402.3439,536.3656" fill="none" id="CON_Telemetry-to-CON_Adapter" style="stroke:#181818;stroke-width:1;"/><polygon fill="#181818" points="1396.6,538.1,1406.372,539.3276,1401.3865,536.6547,1404.0595,531.6692,1396.6,538.1" style="stroke:#181818;stroke-width:1;"/><text fill="#000000" font-family="sans-serif" font-size="13" lengthAdjust="spacing" textLength="95.9067" x="1759.53" y="483.5969">readTelemetry</text></g><!--link CON_ControlAPI to CON_Adapter--><g class="link" data-entity-1="ent0005" data-entity-2="ent0015" data-link-type="dependency" data-source-line="37" id="lnk27"><path d="M1854.66,278.06 C1848.89,278.68 1843.17,279.26 1837.53,279.78 C1738.35,288.98 114.87,263.28 45.53,334.78 C6,375.54 7.18,420.66 45.53,462.53 C111.31,534.33 690.6418,559.0924 1035.1418,567.5724" fill="none" id="CON_ControlAPI-to-CON_Adapter" style="stroke:#181818;stroke-width:1;"/><polygon fill="#181818" points="1041.14,567.72,1032.2412,563.4997,1036.1415,567.597,1032.0443,571.4973,1041.14,567.72" style="stroke:#181818;stroke-width:1;"/><text fill="#000000" font-family="sans-serif" font-size="13" lengthAdjust="spacing" textLength="98.0776" x="46.53" y="408.6469">sendCommand</text></g><!--link CON_Adapter to CON_Controller--><g class="link" data-entity-1="ent0015" data-entity-2="ent0016" data-link-type="dependency" data-source-line="38" id="lnk28"><path d="M1291.53,607.87 C1291.53,631.59 1291.53,656.76 1291.53,678.34" fill="none" id="CON_Adapter-to-CON_Controller" style="stroke:#181818;stroke-width:1;"/><polygon fill="#181818" points="1291.53,684.34,1295.53,675.34,1291.53,679.34,1287.53,675.34,1291.53,684.34" style="stroke:#181818;stroke-width:1;"/><text fill="#000000" font-family="sans-serif" font-size="13" lengthAdjust="spacing" textLength="80.9517" x="1292.53" y="650.4869">fieldProtocol</text></g><!--link CON_Export to CON_Telemetry--><g class="link" data-entity-1="ent0010" data-entity-2="ent0007" data-link-type="dependency" data-source-line="40" id="lnk29"><path d="M2285.35,275.7 C2250.76,284.44 2215.4,295.6 2183.53,309.78 C2149.69,324.84 2120.3338,345.43 2095.3038,365.47" fill="none" id="CON_Export-to-CON_Telemetry" style="stroke:#181818;stroke-width:1;"/><polygon fill="#181818" points="2090.62,369.22,2100.1456,366.7175,2094.5231,366.095,2095.1456,360.4725,2090.62,369.22" style="stroke:#181818;stroke-width:1;"/><text fill="#000000" font-family="sans-serif" font-size="13" lengthAdjust="spacing" textLength="103.873" x="2184.53" y="322.8469">queryTelemetry</text></g><!--link CON_Export to CON_ExportDB--><g class="link" data-entity-1="ent0010" data-entity-2="ent0013" data-link-type="dependency" data-source-line="41" id="lnk30"><path d="M2585.4,280.28 C2638.79,295.89 2702.11,315.26 2758.53,334.78 C2788.74,345.24 2815.8837,355.5453 2844.7137,366.9953" fill="none" id="CON_Export-to-CON_ExportDB" style="stroke:#181818;stroke-width:1;"/><polygon fill="#181818" points="2850.29,369.21,2843.402,362.1705,2845.6431,367.3644,2840.4491,369.6055,2850.29,369.21" style="stroke:#181818;stroke-width:1;"/><text fill="#000000" font-family="sans-serif" font-size="13" lengthAdjust="spacing" textLength="81.2183" x="2735.53" y="322.8469">persistBatch</text></g><!--link CON_Export to CON_EventBus--><g class="link" data-entity-1="ent0010" data-entity-2="ent0011" data-link-type="dependency" data-source-line="42" id="lnk31"><path d="M2457.07,280.09 C2455.27,294.83 2455.17,312.07 2460.53,326.78 C2466.2,342.38 2472.6391,352.5209 2483.4491,364.7109" fill="none" id="CON_Export-to-CON_EventBus" style="stroke:#181818;stroke-width:1;"/><polygon fill="#181818" points="2487.43,369.2,2484.4514,359.8124,2484.1126,365.4591,2478.4659,365.1203,2487.43,369.2" style="stroke:#181818;stroke-width:1;"/><text fill="#000000" font-family="sans-serif" font-size="13" lengthAdjust="spacing" textLength="105.7837" x="2461.53" y="322.8469">publishExported</text></g><!--link CON_Export to CON_ExternalExport--><g class="link" data-entity-1="ent0010" data-entity-2="ent0018" data-link-type="dependency" data-source-line="43" id="lnk32"><path d="M2285.1,277.86 C2279.18,278.56 2273.31,279.2 2267.53,279.78 C1844.55,322.13 1735.88,284.66 1311.53,309.78 C1183.71,317.35 1149.03,304.91 1024.53,334.78 C983.91,344.53 945.705,359.8814 912.935,374.8914" fill="none" id="CON_Export-to-CON_ExternalExport" style="stroke:#181818;stroke-width:1;"/><polygon fill="#181818" points="907.48,377.39,917.3282,377.2787,912.0258,375.3078,913.9967,370.0054,907.48,377.39" style="stroke:#181818;stroke-width:1;"/><text fill="#000000" font-family="sans-serif" font-size="13" lengthAdjust="spacing" textLength="93.6216" x="1312.53" y="322.8469">exportPayload</text></g><!--link CON_EventBus to CON_GUI--><g class="link" data-entity-1="ent0011" data-entity-2="ent0003" data-link-type="dependency" data-source-line="45" id="lnk33"><path d="M2646.86,369.24 C2665.75,358.67 2682.84,344.84 2694.53,326.78 C2733.72,266.24 2715.69,215.52 2661.53,167.89 C2610.18,122.73 2217.3133,97.3931 1968.7433,85.6531" fill="none" id="CON_EventBus-to-CON_GUI" style="stroke:#181818;stroke-width:1;"/><polygon fill="#181818" points="1962.75,85.37,1971.5513,89.7901,1967.7444,85.6059,1971.9287,81.7991,1962.75,85.37" style="stroke:#181818;stroke-width:1;"/><text fill="#000000" font-family="sans-serif" font-size="13" lengthAdjust="spacing" textLength="85.3569" x="2716.53" y="249.9069">pushUpdates</text></g><!--link CON_Lease to GMN37--><g class="link" data-entity-1="ent0009" data-entity-2="ent0038" data-link-type="association" data-source-line="53" id="lnk39"><path d="M1428.83,277.91 C1423.34,278.57 1417.9,279.2 1412.53,279.78 C1101.41,313.67 1018.51,279.22 710.53,334.78 C624.48,350.31 525.49,376.04 470.35,391.09" fill="none" id="CON_Lease-GMN37" style="stroke:#181818;stroke-width:1;stroke-dasharray:7,7;"/></g><?plantuml-src VLPDZziu3BtxLn2zDkdSvx3096qN0mnsWlKEvj0M0zbc4Y6ov4fojaQn_xtKbx-gx2L8B8hlXUHxjBbmsJ7DMkXOVM4dBEqW43JMbicJmA8OlyAxvmuriqh3gz8NOvdbIhu3Pc3_zbh2pm9W5lpdooFibRICIzHVvPTq-UNnsrVvDvfEISChBhZbQEwXLctBP0CehHusq6dLTjPiGF0hWiFgJO1w_kkDKXV_BPWv8Aq470IpHwNRo6f_MBEAWG-79RbzG8-dMO9N9dZ3B6v0wVgCnch_e-ihmSqPy4hC9ueJpXA_P4UqGudwocjSK7YK5hLGzSLauGKRK6C3nYS0Ksj4oULf0wnIseBk1Kxm0MO9_GyAR96gcqF_hD6SIr_cBBn6rb2F_9yIgC6cP1iW9bG9C99rvgncDHW1bpmUUdlEKIYnxZMtm_wCzILBWj5DgZAl_UHjmAeBIk36z4pMEE8wW2Na4pA3EKn_yAHku1dkhczL6dlXekyqIloNFlsl4THdMg9--j5HPzQZzYpnbGtXB8kA_cYgC2bp48er1fGKmmWOCXGhI3U5kzui47UQwgIpM3IzTwQlW3Gp0tm_gN4vrIdzkg4Djq_g11ztRexRjhUi4fXlOTUXRBRkdr0xwPvBf7HZPjsZfnztkLAMr0GCAFzJF-gMuSR6Ef9aAcQTO5UL8uYbXtpcA1eekOrDVGiFyWP26dXeM4UINPJwe9LLjH8-YjLvWbT7K4bYriNmJIhutTG4kY-Dc7cigqs0N38AD2TU-PaYSP588mpvAhPyDcDhtw8qg-fy-a70aWa8rODoC1QJpuw7FxDjyw5vLwdH-NkQy5cBGi8uv4Gb-Zvijt-C8eU59U1lCLwJBgZ-tdEDGQBheDb68CNt5TKbReDYTPnkZBv65yXcwtCPhU_MXU3658sqH7fYEddzhIjH1P0Kut_V2XvLVv_MaNyIaazinznnS8EhJovzYyeORj2joAaswMHLIk63Zsuianv2_-BevEhulKSzBAciefDgOLJupkaw6_fxFQ8Nv1FFPmsI0H_2J4RcAMEwv2R8PJVdbywz5PYYa8e4fldfR44T5t9DRh0zSat6LAbUDamFzyNa18OSggNXVq_lEdrbQBL1Boit8i1fM4xQ6y67WZe03YZ2LSfQrIQyCE3-yyvVxNGmSBUvQRdIvY9kSPiPED8xbj-UjEPSn57mseRlmIKck5y0?></g></svg>