<svg xmlns="http://www.w3.org/2000/svg" xmlns:xlink="http://www.w3.org/1999/xlink" contentStyleType="text/css" data-diagram-type="DESCRIPTION" height="1042px" preserveAspectRatio="none" style="width:864px;height:1042px;background:#FFFFFF;" version="1.1" viewBox="0 0 864 1042" width="864px" zoomAndPan="magnify"><?plantuml 1.2026.3beta5?><defs/><g><!--cluster TMC Site--><g class="cluster" data-qualified-name="TMC Site" data-source-line="1" id="ent0002"><polygon fill="none" points="64,16,74,6,445,6,445,385.59,435,395.59,64,395.59,64,16" style="stroke:#181818;stroke-width:1;"/><line style="stroke:#181818;stroke-width:1;" x1="435" x2="445" y1="16" y2="6"/><line style="stroke:#181818;stroke-width:1;" x1="64" x2="435" y1="16" y2="16"/><line style="stroke:#181818;stroke-width:1;" x1="435" x2="435" y1="16" y2="395.59"/><text fill="#000000" font-family="sans-serif" font-size="14" font-weight="700" lengthAdjust="spacing" textLength="69.6992" x="215.6504" y="31.9951">TMC Site</text></g><!--cluster Workstation--><g class="cluster" data-qualified-name="TMC Site.Workstation" data-source-line="2" id="ent0003"><polygon fill="none" points="233,72,243,62,410,62,410,170.29,400,180.29,233,180.29,233,72" style="stroke:#181818;stroke-width:1;"/><line style="stroke:#181818;stroke-width:1;" x1="400" x2="410" y1="72" y2="62"/><line style="stroke:#181818;stroke-width:1;" x1="233" x2="400" y1="72" y2="72"/><line style="stroke:#181818;stroke-width:1;" x1="400" x2="400" y1="72" y2="180.29"/><text fill="#000000" font-family="sans-serif" font-size="14" font-weight="700" lengthAdjust="spacing" textLength="96.8242" x="269.0879" y="87.9951">Workstation</text></g><!--cluster App Server--><g class="cluster" data-qualified-name="TMC Site.App Server" data-source-line="5" id="ent0005"><polygon fill="none" points="96,255.29,106,245.29,413,245.29,413,353.59,403,363.59,96,363.59,96,255.29" style="stroke:#181818;stroke-width:1;"/><line style="stroke:#181818;stroke-width:1;" x1="403" x2="413" y1="255.29" y2="245.29"/><line style="stroke:#181818;stroke-width:1;" x1="96" x2="403" y1="255.29" y2="255.29"/><line style="stroke:#181818;stroke-width:1;" x1="403" x2="403" y1="255.29" y2="363.59"/><text fill="#000000" font-family="sans-serif" font-size="14" font-weight="700" lengthAdjust="spacing" textLength="87.7598" x="206.6201" y="271.2851">App Server</text></g><!--cluster Firewall--><g class="cluster" data-qualified-name="Firewall" data-source-line="10" id="ent0008"><polygon fill="none" points="305,510.59,315,500.59,491,500.59,491,608.89,481,618.89,305,618.89,305,510.59" style="stroke:#181818;stroke-width:1;"/><line style="stroke:#181818;stroke-width:1;" x1="481" x2="491" y1="510.59" y2="500.59"/><line style="stroke:#181818;stroke-width:1;" x1="305" x2="481" y1="510.59" y2="510.59"/><line style="stroke:#181818;stroke-width:1;" x1="481" x2="481" y1="510.59" y2="618.89"/><text fill="#000000" font-family="sans-serif" font-size="14" font-weight="700" lengthAdjust="spacing" textLength="62.7402" x="362.6299" y="526.5851">Firewall</text></g><!--cluster External Network--><g class="cluster" data-qualified-name="External Network" data-source-line="13" id="ent0010"><polygon fill="none" points="305,693.89,315,683.89,536,683.89,536,792.18,526,802.18,305,802.18,305,693.89" style="stroke:#181818;stroke-width:1;"/><line style="stroke:#181818;stroke-width:1;" x1="526" x2="536" y1="693.89" y2="683.89"/><line style="stroke:#181818;stroke-width:1;" x1="305" x2="526" y1="693.89" y2="693.89"/><line style="stroke:#181818;stroke-width:1;" x1="526" x2="526" y1="693.89" y2="802.18"/><text fill="#000000" font-family="sans-serif" font-size="14" font-weight="700" lengthAdjust="spacing" textLength="137.4434" x="347.7783" y="709.8851">External Network</text></g><!--cluster Field Site North--><g class="cluster" data-qualified-name="Field Site North" data-source-line="16" id="ent0012"><polygon fill="none" points="16,454.59,26,444.59,273,444.59,273,1007.48,263,1017.48,16,1017.48,16,454.59" style="stroke:#181818;stroke-width:1;"/><line style="stroke:#181818;stroke-width:1;" x1="263" x2="273" y1="454.59" y2="444.59"/><line style="stroke:#181818;stroke-width:1;" x1="16" x2="263" y1="454.59" y2="454.59"/><line style="stroke:#181818;stroke-width:1;" x1="263" x2="263" y1="454.59" y2="1017.48"/><text fill="#000000" font-family="sans-serif" font-size="14" font-weight="700" lengthAdjust="spacing" textLength="124.3936" x="78.3032" y="470.5851">Field Site North</text></g><!--cluster FCU North--><g class="cluster" data-qualified-name="Field Site North.FCU North" data-source-line="17" id="ent0013"><polygon fill="none" points="64,510.59,74,500.59,241,500.59,241,608.89,231,618.89,64,618.89,64,510.59" style="stroke:#181818;stroke-width:1;"/><line style="stroke:#181818;stroke-width:1;" x1="231" x2="241" y1="510.59" y2="500.59"/><line style="stroke:#181818;stroke-width:1;" x1="64" x2="231" y1="510.59" y2="510.59"/><line style="stroke:#181818;stroke-width:1;" x1="231" x2="231" y1="510.59" y2="618.89"/><text fill="#000000" font-family="sans-serif" font-size="14" font-weight="700" lengthAdjust="spacing" textLength="80.9785" x="108.0107" y="526.5851">FCU North</text></g><!--cluster DCU 1-5--><g class="cluster" data-qualified-name="Field Site North.DCU 1-5" data-source-line="20" id="ent0015"><polygon fill="none" points="55,693.89,65,683.89,234,683.89,234,792.18,224,802.18,55,802.18,55,693.89" style="stroke:#181818;stroke-width:1;"/><line style="stroke:#181818;stroke-width:1;" x1="224" x2="234" y1="693.89" y2="683.89"/><line style="stroke:#181818;stroke-width:1;" x1="55" x2="224" y1="693.89" y2="693.89"/><line style="stroke:#181818;stroke-width:1;" x1="224" x2="224" y1="693.89" y2="802.18"/><text fill="#000000" font-family="sans-serif" font-size="14" font-weight="700" lengthAdjust="spacing" textLength="63.4307" x="108.7847" y="709.8851">DCU 1-5</text></g><!--cluster Devices--><g class="cluster" data-qualified-name="Field Site North.Devices" data-source-line="23" id="ent0017"><polygon fill="none" points="48,877.18,58,867.18,241,867.18,241,975.48,231,985.48,48,985.48,48,877.18" style="stroke:#181818;stroke-width:1;"/><line style="stroke:#181818;stroke-width:1;" x1="231" x2="241" y1="877.18" y2="867.18"/><line style="stroke:#181818;stroke-width:1;" x1="48" x2="231" y1="877.18" y2="877.18"/><line style="stroke:#181818;stroke-width:1;" x1="231" x2="231" y1="877.18" y2="985.48"/><text fill="#000000" font-family="sans-serif" font-size="14" font-weight="700" lengthAdjust="spacing" textLength="61.168" x="109.916" y="893.1751">Devices</text></g><!--entity GUI Client--><g class="entity" data-qualified-name="TMC Site.Workstation.GUI Client" data-source-line="3" id="ent0004"><rect fill="#F1F1F1" height="46.2969" rx="2.5" ry="2.5" style="stroke:#181818;stroke-width:0.5;" width="110.2051" x="256.9" y="110"/><rect fill="#F1F1F1" height="10" style="stroke:#181818;stroke-width:0.5;" width="15" x="347.1051" y="115"/><rect fill="#F1F1F1" height="2" style="stroke:#181818;stroke-width:0.5;" width="4" x="345.1051" y="117"/><rect fill="#F1F1F1" height="2" style="stroke:#181818;stroke-width:0.5;" width="4" x="345.1051" y="121"/><text fill="#000000" font-family="sans-serif" font-size="14" lengthAdjust="spacing" textLength="70.2051" x="271.9" y="142.9951">GUI Client</text></g><!--entity TMC Core--><g class="entity" data-qualified-name="TMC Site.App Server.TMC Core" data-source-line="6" id="ent0006"><rect fill="#F1F1F1" height="46.2969" rx="2.5" ry="2.5" style="stroke:#181818;stroke-width:0.5;" width="107.5664" x="120.22" y="293.29"/><rect fill="#F1F1F1" height="10" style="stroke:#181818;stroke-width:0.5;" width="15" x="207.7864" y="298.29"/><rect fill="#F1F1F1" height="2" style="stroke:#181818;stroke-width:0.5;" width="4" x="205.7864" y="300.29"/><rect fill="#F1F1F1" height="2" style="stroke:#181818;stroke-width:0.5;" width="4" x="205.7864" y="304.29"/><text fill="#000000" font-family="sans-serif" font-size="14" lengthAdjust="spacing" textLength="67.5664" x="135.22" y="326.2851">TMC Core</text></g><!--entity Database--><g class="entity" data-qualified-name="TMC Site.App Server.Database" data-source-line="7" id="ent0007"><rect fill="#F1F1F1" height="46.2969" rx="2.5" ry="2.5" style="stroke:#181818;stroke-width:0.5;" width="106.8008" x="262.6" y="293.29"/><rect fill="#F1F1F1" height="10" style="stroke:#181818;stroke-width:0.5;" width="15" x="349.4008" y="298.29"/><rect fill="#F1F1F1" height="2" style="stroke:#181818;stroke-width:0.5;" width="4" x="347.4008" y="300.29"/><rect fill="#F1F1F1" height="2" style="stroke:#181818;stroke-width:0.5;" width="4" x="347.4008" y="304.29"/><text fill="#000000" font-family="sans-serif" font-size="14" lengthAdjust="spacing" textLength="66.8008" x="277.6" y="326.2851">Database</text></g><!--entity Data Diode--><g class="entity" data-qualified-name="Firewall.Data Diode" data-source-line="11" id="ent0009"><rect fill="#F1F1F1" height="46.2969" rx="2.5" ry="2.5" style="stroke:#181818;stroke-width:0.5;" width="118.6133" x="328.69" y="548.59"/><rect fill="#F1F1F1" height="10" style="stroke:#181818;stroke-width:0.5;" width="15" x="427.3033" y="553.59"/><rect fill="#F1F1F1" height="2" style="stroke:#181818;stroke-width:0.5;" width="4" x="425.3033" y="555.59"/><rect fill="#F1F1F1" height="2" style="stroke:#181818;stroke-width:0.5;" width="4" x="425.3033" y="559.59"/><text fill="#000000" font-family="sans-serif" font-size="14" lengthAdjust="spacing" textLength="78.6133" x="343.69" y="581.5851">Data Diode</text></g><!--entity External Receiver--><g class="entity" data-qualified-name="External Network.External Receiver" data-source-line="14" id="ent0011"><rect fill="#F1F1F1" height="46.2969" rx="2.5" ry="2.5" style="stroke:#181818;stroke-width:0.5;" width="163.9766" x="329.01" y="731.89"/><rect fill="#F1F1F1" height="10" style="stroke:#181818;stroke-width:0.5;" width="15" x="472.9866" y="736.89"/><rect fill="#F1F1F1" height="2" style="stroke:#181818;stroke-width:0.5;" width="4" x="470.9866" y="738.89"/><rect fill="#F1F1F1" height="2" style="stroke:#181818;stroke-width:0.5;" width="4" x="470.9866" y="742.89"/><text fill="#000000" font-family="sans-serif" font-size="14" lengthAdjust="spacing" textLength="123.9766" x="344.01" y="764.8851">External Receiver</text></g><!--entity FCU Logic--><g class="entity" data-qualified-name="Field Site North.FCU North.FCU Logic" data-source-line="18" id="ent0014"><rect fill="#F1F1F1" height="46.2969" rx="2.5" ry="2.5" style="stroke:#181818;stroke-width:0.5;" width="109.3643" x="88.32" y="548.59"/><rect fill="#F1F1F1" height="10" style="stroke:#181818;stroke-width:0.5;" width="15" x="177.6843" y="553.59"/><rect fill="#F1F1F1" height="2" style="stroke:#181818;stroke-width:0.5;" width="4" x="175.6843" y="555.59"/><rect fill="#F1F1F1" height="2" style="stroke:#181818;stroke-width:0.5;" width="4" x="175.6843" y="559.59"/><text fill="#000000" font-family="sans-serif" font-size="14" lengthAdjust="spacing" textLength="69.3643" x="103.32" y="581.5851">FCU Logic</text></g><!--entity DCU Logic--><g class="entity" data-qualified-name="Field Site North.DCU 1-5.DCU Logic" data-source-line="21" id="ent0016"><rect fill="#F1F1F1" height="46.2969" rx="2.5" ry="2.5" style="stroke:#181818;stroke-width:0.5;" width="112.0918" x="78.95" y="731.89"/><rect fill="#F1F1F1" height="10" style="stroke:#181818;stroke-width:0.5;" width="15" x="171.0418" y="736.89"/><rect fill="#F1F1F1" height="2" style="stroke:#181818;stroke-width:0.5;" width="4" x="169.0418" y="738.89"/><rect fill="#F1F1F1" height="2" style="stroke:#181818;stroke-width:0.5;" width="4" x="169.0418" y="742.89"/><text fill="#000000" font-family="sans-serif" font-size="14" lengthAdjust="spacing" textLength="72.0918" x="93.95" y="764.8851">DCU Logic</text></g><!--entity Gate/Sensor--><g class="entity" data-qualified-name="Field Site North.Devices.Gate.Sensor" data-source-line="24" id="ent0018"><rect fill="#F1F1F1" height="46.2969" rx="2.5" ry="2.5" style="stroke:#181818;stroke-width:0.5;" width="126.2354" x="71.88" y="915.18"/><rect fill="#F1F1F1" height="10" style="stroke:#181818;stroke-width:0.5;" width="15" x="178.1154" y="920.18"/><rect fill="#F1F1F1" height="2" style="stroke:#181818;stroke-width:0.5;" width="4" x="176.1154" y="922.18"/><rect fill="#F1F1F1" height="2" style="stroke:#181818;stroke-width:0.5;" width="4" x="176.1154" y="926.18"/><text fill="#000000" font-family="sans-serif" font-size="14" lengthAdjust="spacing" textLength="86.2354" x="86.88" y="948.1751">Gate/Sensor</text></g><g class="entity" data-qualified-name="GMN25" data-source-line="36" id="ent0026"><path d="M518.69,551.61 L518.69,591.8756 L643.3155,591.8756 L643.3155,561.61 L633.3155,551.61 L518.69,551.61" fill="#FEFFDD" style="stroke:#181818;stroke-width:0.5;"/><path d="M633.3155,551.61 L633.3155,561.61 L643.3155,561.61 L633.3155,551.61" fill="#FEFFDD" style="stroke:#181818;stroke-width:1;"/><text fill="#000000" font-family="sans-serif" font-size="13" lengthAdjust="spacing" textLength="103.6255" x="524.69" y="568.6769">Degraded Mode</text><text fill="#000000" font-family="sans-serif" font-size="13" lengthAdjust="spacing" textLength="55.6816" x="524.69" y="583.8097">ASR-003</text></g><g class="entity" data-qualified-name="GMN28" data-source-line="40" id="ent0029"><path d="M678.61,551.61 L678.61,591.8756 L849.3893,591.8756 L849.3893,561.61 L839.3893,551.61 L678.61,551.61" fill="#FEFFDD" style="stroke:#181818;stroke-width:0.5;"/><path d="M839.3893,551.61 L839.3893,561.61 L849.3893,561.61 L839.3893,551.61" fill="#FEFFDD" style="stroke:#181818;stroke-width:1;"/><text fill="#000000" font-family="sans-serif" font-size="13" lengthAdjust="spacing" textLength="149.7793" x="684.61" y="568.6769">Network Segmentation</text><text fill="#000000" font-family="sans-serif" font-size="13" lengthAdjust="spacing" textLength="55.6816" x="684.61" y="583.8097">ASR-005</text></g><!--link Workstation to App Server--><g class="link" data-entity-1="ent0003" data-entity-2="ent0005" data-link-type="association" data-source-line="28" id="lnk19"><path d="M402.7624,180.2939 C402.7674,180.5972 402.7724,180.9015 402.7775,181.2066 C402.7977,182.4269 402.8181,183.6611 402.8388,184.9079 C402.8801,187.4014 402.9222,189.9453 402.965,192.5293 C403.1363,202.8656 403.3181,213.8456 403.5,224.825 C403.5909,230.3147 403.6819,235.8042 403.7715,241.2131 C403.7939,242.5653 403.8162,243.9124 403.8384,245.2533" fill="none" id="Workstation-App Server" style="stroke:#181818;stroke-width:1;"/><text fill="#000000" font-family="sans-serif" font-size="13" lengthAdjust="spacing" textLength="25.8604" x="404" y="217.3569">LAN</text></g><!--link App Server to Firewall--><g class="link" data-entity-1="ent0005" data-entity-2="ent0008" data-link-type="association" data-source-line="29" id="lnk20"><path d="M413.1927,330.7903 C413.261,330.9051 413.3297,331.0205 413.3986,331.1365 C413.5366,331.3686 413.6759,331.6033 413.8165,331.8404 C414.3788,332.7891 414.9619,333.778 415.5639,334.8052 C416.7679,336.8596 418.0476,339.067 419.388,341.4112 C422.0688,346.0996 424.9928,351.3353 428.0413,356.9888 C440.235,379.6025 454.42,408.9 463,436.59 C467.39,450.76 470.8306,466.08 473.5233,481.1258 C474.1964,484.8872 474.8229,488.6315 475.4057,492.3364 C475.6971,494.1889 475.9776,496.0315 476.2476,497.8615 C476.3151,498.319 476.3819,498.7757 476.4481,499.2316 C476.4812,499.4595 476.5142,499.6872 476.5469,499.9147" fill="none" id="App Server-Firewall" style="stroke:#181818;stroke-width:1;"/><text fill="#000000" font-family="sans-serif" font-size="13" lengthAdjust="spacing" textLength="75.7339" x="460" y="424.6569">Secure Link</text></g><!--link Firewall to External Network--><g class="link" data-entity-1="ent0008" data-entity-2="ent0010" data-link-type="association" data-source-line="30" id="lnk21"><path d="M491.0344,600.7031 C491.0723,600.8372 491.1102,600.9716 491.1482,601.1063 C491.3003,601.6454 491.4537,602.1897 491.6084,602.7391 C491.9178,603.838 492.2323,604.9572 492.5513,606.095 C497.655,624.3 503.915,647.27 509,667.89 C510.1375,672.4988 511.2781,677.2545 512.4044,682.0542 C512.5452,682.6541 512.6858,683.2548 512.8261,683.8559" fill="none" id="Firewall-External Network" style="stroke:#181818;stroke-width:1;"/><text fill="#000000" font-family="sans-serif" font-size="13" lengthAdjust="spacing" textLength="59.6743" x="507" y="655.9569">One-Way</text></g><!--link App Server to FCU North--><g class="link" data-entity-1="ent0005" data-entity-2="ent0013" data-link-type="association" data-source-line="31" id="lnk22"><path d="M403.5138,363.6233 C403.4065,364.2011 403.2948,364.7796 403.1786,365.3586 C402.2491,369.9907 401.0319,374.6514 399.4513,379.1841 C396.29,388.2494 391.675,396.8025 385,403.59 C374.72,414.04 366.49,405.86 353,411.59 C333.71,419.79 327.67,421.61 313,436.59 C289.095,461 269.3425,493.8775 255.445,520.975 C251.9706,527.7494 248.8622,534.1625 246.1463,539.9918 C244.7883,542.9064 243.5285,545.675 242.3702,548.2699 C242.0806,548.9186 241.7973,549.5565 241.5205,550.183 C241.3821,550.4963 241.2452,550.8068 241.11,551.1144" fill="none" id="App Server-FCU North" style="stroke:#181818;stroke-width:1;"/><text fill="#000000" font-family="sans-serif" font-size="13" lengthAdjust="spacing" textLength="91.2983" x="354" y="424.6569">WAN (Private)</text></g><!--link FCU North to DCU 1-5--><g class="link" data-entity-1="ent0013" data-entity-2="ent0015" data-link-type="association" data-source-line="32" id="lnk23"><path d="M231.1828,619.7991 C231.1357,621.0195 231.0881,622.2538 231.04,623.5006 C230.9437,625.9943 230.8456,628.5383 230.7458,631.1225 C230.3468,641.4594 229.9228,652.44 229.4988,663.42 C229.2867,668.91 229.0747,674.3998 228.8657,679.809 C228.8135,681.1613 228.7614,682.5085 228.7096,683.8494" fill="none" id="FCU North-DCU 1-5" style="stroke:#181818;stroke-width:1;"/><text fill="#000000" font-family="sans-serif" font-size="13" lengthAdjust="spacing" textLength="97.3921" x="232" y="655.9569">Serial/Ethernet</text></g><!--link DCU 1-5 to Devices--><g class="link" data-entity-1="ent0015" data-entity-2="ent0017" data-link-type="association" data-source-line="33" id="lnk24"><path d="M227.782,802.1839 C227.7937,802.4872 227.8054,802.7915 227.8172,803.0966 C227.8643,804.3169 227.9119,805.5511 227.96,806.7979 C228.0563,809.2914 228.1544,811.8353 228.2542,814.4193 C228.6532,824.7556 229.0772,835.7356 229.5013,846.715 C229.7133,852.2047 229.9253,857.6942 230.1343,863.1031 C230.1865,864.4553 230.2386,865.8024 230.2904,867.1433" fill="none" id="DCU 1-5-Devices" style="stroke:#181818;stroke-width:1;"/><text fill="#000000" font-family="sans-serif" font-size="13" lengthAdjust="spacing" textLength="18.4463" x="231" y="839.2469">I/O</text></g><!--link FCU North to GMN25--><g class="link" data-entity-1="ent0013" data-entity-2="ent0026" data-link-type="association" data-source-line="36" id="lnk27"><path d="M241.13,540.8683 C241.2625,540.4483 241.3969,540.0253 241.5331,539.5995 C241.8054,538.7478 242.0849,537.8848 242.3716,537.0111 C243.5187,533.5163 244.7823,529.8508 246.1684,526.06 C248.9405,518.4784 252.2025,510.3953 256.0025,502.1737 C271.2025,469.2875 295.01,434.185 330.5,420.09 C361.69,407.71 450.31,407.71 481.5,420.09 C537.25,442.23 565.13,515.39 575.74,551.38" fill="none" id="FCU North-GMN25" style="stroke:#181818;stroke-width:1;stroke-dasharray:7,7;"/></g><!--link GMN28 to Firewall--><g class="link" data-entity-1="ent0029" data-entity-2="ent0008" data-link-type="association" data-source-line="40" id="lnk30"><path d="M755.82,551.12 C740.3,515.4 702.73,443.61 643.5,420.09 C591.87,399.59 570.13,399.59 518.5,420.09 C503.17,426.1775 493.13,437.9744 486.7294,452.4141 C483.5291,459.6339 481.2386,467.5145 479.6516,475.6724 C478.8582,479.7513 478.2406,483.8997 477.7731,488.0694 C477.5393,490.1543 477.3431,492.2445 477.1811,494.3341 C477.1002,495.3789 477.0278,496.4235 476.9636,497.4673 C476.9314,497.9891 476.9014,498.5108 476.8733,499.0321 C476.8593,499.2928 476.8457,499.5533 476.8327,499.8138" fill="none" id="GMN28-Firewall" style="stroke:#181818;stroke-width:1;stroke-dasharray:7,7;"/></g><?plantuml-src TP51Ru9048Nl-oicdDe3qQRnmes0DYQAZTHutiA86zTTisorJUD_xomeWj8RpBptPlORfNC4xsCUGIeiUl3B05HLMskpAostGgkw393f_K4hL1QyjzKK8YdeswFMkN65XmEaQ8veUankJAGDUlUDc5l-oKkiiywipfe8WoSkPPrq9uTOaCXhnEDlYqPn2GdQ4wt-O6e4IynGk0LRWr3c5G18jB7RDeP9j6eNEv6kDzE5oBeCOYg_-ACUG_oF0OyYmx8FCxSuI56LsbpPiEvbVByBFO1PcB1EoKbkB0EgPry6OIRKZhKQJlP8CO25Gd_DVteoRsW2M8S9FBqRSQIDdrcxvwGD4ZVT22u7OxkbIMZPhLS9hoW2c0uMZ0v4Hp6Ys5hGc_P8eX5ZONYEESo98ls7wT8V3byPgXoShpPBt5oyrvUIzF8yMgRO4-YAPPCmQXB-0000?></g></svg>