<svg xmlns="http://www.w3.org/2000/svg" xmlns:xlink="http://www.w3.org/1999/xlink" contentStyleType="text/css" data-diagram-type="ACTIVITY" height="964px" preserveAspectRatio="none" style="width:1335px;height:964px;background:#FFFFFF;" version="1.1" viewBox="0 0 1335 964" width="1335px" zoomAndPan="magnify"><?plantuml 1.2026.3beta6?><defs/><g><ellipse cx="888.2418" cy="25" fill="#222222" rx="10" ry="10" style="stroke:#222222;stroke-width:1;"/><rect fill="#F1F1F1" height="33.9688" rx="12.5" ry="12.5" style="stroke:#181818;stroke-width:0.5;" width="98.8672" x="838.8082" y="55"/><text fill="#000000" font-family="sans-serif" font-size="12" lengthAdjust="spacing" textLength="78.8672" x="848.8082" y="76.1387">Open Web UI</text><rect fill="#F1F1F1" height="33.9688" rx="12.5" ry="12.5" style="stroke:#181818;stroke-width:0.5;" width="196.5605" x="789.9615" y="108.9688"/><text fill="#000000" font-family="sans-serif" font-size="12" lengthAdjust="spacing" textLength="176.5605" x="799.9615" y="130.1074">Authenticate [SecurityCheck]</text><polygon fill="#F1F1F1" points="862.7479,162.9375,913.7357,162.9375,925.7357,174.9375,913.7357,186.9375,862.7479,186.9375,850.7479,174.9375,862.7479,162.9375" style="stroke:#181818;stroke-width:0.5;"/><text fill="#000000" font-family="sans-serif" font-size="11" lengthAdjust="spacing" textLength="50.9878" x="862.7479" y="178.7456">Auth OK?</text><text fill="#000000" font-family="sans-serif" font-size="11" lengthAdjust="spacing" textLength="19.0083" x="831.7396" y="172.3433">yes</text><text fill="#000000" font-family="sans-serif" font-size="11" lengthAdjust="spacing" textLength="13.7017" x="925.7357" y="172.3433">no</text><rect fill="#F1F1F1" height="33.9688" rx="12.5" ry="12.5" style="stroke:#181818;stroke-width:0.5;" width="113.668" x="498.0867" y="196.9375"/><text fill="#000000" font-family="sans-serif" font-size="12" lengthAdjust="spacing" textLength="93.668" x="508.0867" y="218.0762">Load device list</text><rect fill="#555555" height="6" rx="2.5" ry="2.5" style="stroke:#555555;stroke-width:1;" width="1077.8413" x="16" y="250.9063"/><path d="M235.5195,276.9063 L235.5195,293.0391 L215.5195,297.0391 L235.5195,301.0391 L235.5195,317.1719 A0,0 0 0 0 235.5195,317.1719 L571.7632,317.1719 A0,0 0 0 0 571.7632,317.1719 L571.7632,286.9063 L561.7632,276.9063 L235.5195,276.9063 A0,0 0 0 0 235.5195,276.9063" fill="#FEFFDD" style="stroke:#181818;stroke-width:0.5;"/><path d="M561.7632,276.9063 L561.7632,286.9063 L571.7632,286.9063 L561.7632,276.9063" fill="#FEFFDD" style="stroke:#181818;stroke-width:0.5;"/><text fill="#000000" font-family="sans-serif" font-size="13" lengthAdjust="spacing" textLength="179.4038" x="241.5195" y="293.9731">NFR-001: UI updates &lt;= 2s</text><text fill="#000000" font-family="sans-serif" font-size="13" lengthAdjust="spacing" textLength="315.2437" x="241.5195" y="309.106">ASR-002: ui_refresh_interval_secs metric + alert</text><rect fill="#F1F1F1" height="33.9688" rx="12.5" ry="12.5" style="stroke:#181818;stroke-width:0.5;" width="187.5195" x="28" y="280.0547"/><text fill="#000000" font-family="sans-serif" font-size="12" lengthAdjust="spacing" textLength="167.5195" x="38" y="301.1934">Subscribe telemetry stream</text><path d="M791.1167,276.9063 L791.1167,293.0391 L771.1167,297.0391 L791.1167,301.0391 L791.1167,317.1719 A0,0 0 0 0 791.1167,317.1719 L1081.8413,317.1719 A0,0 0 0 0 1081.8413,317.1719 L1081.8413,286.9063 L1071.8413,276.9063 L791.1167,276.9063 A0,0 0 0 0 791.1167,276.9063" fill="#FEFFDD" style="stroke:#181818;stroke-width:0.5;"/><path d="M1071.8413,276.9063 L1071.8413,286.9063 L1081.8413,286.9063 L1071.8413,276.9063" fill="#FEFFDD" style="stroke:#181818;stroke-width:0.5;"/><text fill="#000000" font-family="sans-serif" font-size="13" lengthAdjust="spacing" textLength="192.6768" x="797.1167" y="293.9731">NFR-002: per-sensor &gt;=10Hz</text><text fill="#000000" font-family="sans-serif" font-size="13" lengthAdjust="spacing" textLength="269.7246" x="797.1167" y="309.106">sensor_acquisition_rate_hz metric + alert</text><rect fill="#F1F1F1" height="33.9688" rx="12.5" ry="12.5" style="stroke:#181818;stroke-width:0.5;" width="171.3535" x="599.7632" y="280.0547"/><text fill="#000000" font-family="sans-serif" font-size="12" lengthAdjust="spacing" textLength="151.3535" x="609.7632" y="301.1934">Gateway acquisition loop</text><rect fill="#555555" height="6" rx="2.5" ry="2.5" style="stroke:#555555;stroke-width:1;" width="1077.8413" x="16" y="337.1719"/><rect fill="#F1F1F1" height="33.9688" rx="12.5" ry="12.5" style="stroke:#181818;stroke-width:0.5;" width="176.3867" x="466.7273" y="363.1719"/><text fill="#000000" font-family="sans-serif" font-size="12" lengthAdjust="spacing" textLength="156.3867" x="476.7273" y="384.3105">Render current conditions</text><polygon fill="#F1F1F1" points="499.7891,417.1406,610.0522,417.1406,622.0522,429.1406,610.0522,441.1406,499.7891,441.1406,487.7891,429.1406,499.7891,417.1406" style="stroke:#181818;stroke-width:0.5;"/><text fill="#000000" font-family="sans-serif" font-size="11" lengthAdjust="spacing" textLength="110.2632" x="499.7891" y="432.9487">User issues control?</text><text fill="#000000" font-family="sans-serif" font-size="11" lengthAdjust="spacing" textLength="19.0083" x="468.7808" y="426.5464">yes</text><text fill="#000000" font-family="sans-serif" font-size="11" lengthAdjust="spacing" textLength="13.7017" x="622.0522" y="426.5464">no</text><rect fill="#F1F1F1" height="33.9688" rx="12.5" ry="12.5" style="stroke:#181818;stroke-width:0.5;" width="203.498" x="303.834" y="451.1406"/><text fill="#000000" font-family="sans-serif" font-size="12" lengthAdjust="spacing" textLength="183.498" x="313.834" y="472.2793">Validate command constraints</text><rect fill="#F1F1F1" height="33.9688" rx="12.5" ry="12.5" style="stroke:#181818;stroke-width:0.5;" width="305.041" x="253.0625" y="505.1094"/><text fill="#000000" font-family="sans-serif" font-size="12" lengthAdjust="spacing" textLength="285.041" x="263.0625" y="526.248">Apply arbitration (Manual &gt; Planned &gt; Default)</text><rect fill="#F1F1F1" height="33.9688" rx="12.5" ry="12.5" style="stroke:#181818;stroke-width:0.5;" width="232.291" x="289.4375" y="559.0781"/><text fill="#000000" font-family="sans-serif" font-size="12" lengthAdjust="spacing" textLength="212.291" x="299.4375" y="580.2168">Send control command to Gateway</text><rect fill="#F1F1F1" height="33.9688" rx="12.5" ry="12.5" style="stroke:#181818;stroke-width:0.5;" width="210.0957" x="300.5352" y="613.0469"/><text fill="#000000" font-family="sans-serif" font-size="12" lengthAdjust="spacing" textLength="190.0957" x="310.5352" y="634.1855">Persist command + audit event</text><polygon fill="#F1F1F1" points="372.5266,667.0156,438.6394,667.0156,450.6394,679.0156,438.6394,691.0156,372.5266,691.0156,360.5266,679.0156,372.5266,667.0156" style="stroke:#181818;stroke-width:0.5;"/><text fill="#000000" font-family="sans-serif" font-size="11" lengthAdjust="spacing" textLength="66.1128" x="372.5266" y="682.8237">Device ack?</text><text fill="#000000" font-family="sans-serif" font-size="11" lengthAdjust="spacing" textLength="19.0083" x="341.5183" y="676.4214">yes</text><text fill="#000000" font-family="sans-serif" font-size="11" lengthAdjust="spacing" textLength="13.7017" x="450.6394" y="676.4214">no</text><rect fill="#F1F1F1" height="33.9688" rx="12.5" ry="12.5" style="stroke:#181818;stroke-width:0.5;" width="113.8086" x="257.3657" y="701.0156"/><text fill="#000000" font-family="sans-serif" font-size="12" lengthAdjust="spacing" textLength="93.8086" x="267.3657" y="722.1543">Update UI state</text><rect fill="#F1F1F1" height="33.9688" rx="12.5" ry="12.5" style="stroke:#181818;stroke-width:0.5;" width="211.4434" x="391.1743" y="701.0156"/><text fill="#000000" font-family="sans-serif" font-size="12" lengthAdjust="spacing" textLength="191.4434" x="401.1743" y="722.1543">Show descriptive error [FR-035]</text><polygon fill="#F1F1F1" points="405.583,740.9844,417.583,752.9844,405.583,764.9844,393.583,752.9844,405.583,740.9844" style="stroke:#181818;stroke-width:0.5;"/><rect fill="#F1F1F1" height="33.9688" rx="12.5" ry="12.5" style="stroke:#181818;stroke-width:0.5;" width="143.2813" x="632.6177" y="451.1406"/><text fill="#000000" font-family="sans-serif" font-size="12" lengthAdjust="spacing" textLength="123.2813" x="642.6177" y="472.2793">Continue monitoring</text><polygon fill="#F1F1F1" points="554.9207,770.9844,566.9207,782.9844,554.9207,794.9844,542.9207,782.9844,554.9207,770.9844" style="stroke:#181818;stroke-width:0.5;"/><rect fill="#F1F1F1" height="33.9688" rx="12.5" ry="12.5" style="stroke:#181818;stroke-width:0.5;" width="236.3984" x="436.7214" y="814.9844"/><text fill="#000000" font-family="sans-serif" font-size="12" lengthAdjust="spacing" textLength="216.3984" x="446.7214" y="836.123">Optionally request report (CSV/PDF)</text><rect fill="#F1F1F1" height="33.9688" rx="12.5" ry="12.5" style="stroke:#181818;stroke-width:0.5;" width="65.1113" x="522.365" y="868.9531"/><text fill="#000000" font-family="sans-serif" font-size="12" lengthAdjust="spacing" textLength="45.1113" x="532.365" y="890.0918">Log out</text><ellipse cx="554.9207" cy="933.9219" fill="none" rx="11" ry="11" style="stroke:#222222;stroke-width:1;"/><ellipse cx="554.9207" cy="933.9219" fill="#222222" rx="6" ry="6" style="stroke:#222222;stroke-width:1;"/><rect fill="#F1F1F1" height="33.9688" rx="12.5" ry="12.5" style="stroke:#181818;stroke-width:0.5;" width="211.4434" x="1103.8413" y="196.9375"/><text fill="#000000" font-family="sans-serif" font-size="12" lengthAdjust="spacing" textLength="191.4434" x="1113.8413" y="218.0762">Show descriptive error [FR-035]</text><ellipse cx="1209.563" cy="261.9063" fill="none" rx="11" ry="11" style="stroke:#222222;stroke-width:1;"/><ellipse cx="1209.563" cy="261.9063" fill="#222222" rx="6" ry="6" style="stroke:#222222;stroke-width:1;"/><line style="stroke:#181818;stroke-width:1;" x1="888.2418" x2="888.2418" y1="35" y2="55"/><polygon fill="#181818" points="884.2418,45,888.2418,55,892.2418,45,888.2418,49" style="stroke:#181818;stroke-width:1;"/><line style="stroke:#181818;stroke-width:1;" x1="888.2418" x2="888.2418" y1="88.9688" y2="108.9688"/><polygon fill="#181818" points="884.2418,98.9688,888.2418,108.9688,892.2418,98.9688,888.2418,102.9688" style="stroke:#181818;stroke-width:1;"/><line style="stroke:#181818;stroke-width:1;" x1="121.7598" x2="121.7598" y1="256.9063" y2="280.0547"/><polygon fill="#181818" points="117.7598,270.0547,121.7598,280.0547,125.7598,270.0547,121.7598,274.0547" style="stroke:#181818;stroke-width:1;"/><line style="stroke:#181818;stroke-width:1;" x1="685.4399" x2="685.4399" y1="256.9063" y2="280.0547"/><polygon fill="#181818" points="681.4399,270.0547,685.4399,280.0547,689.4399,270.0547,685.4399,274.0547" style="stroke:#181818;stroke-width:1;"/><line style="stroke:#181818;stroke-width:1;" x1="121.7598" x2="121.7598" y1="314.0234" y2="337.1719"/><polygon fill="#181818" points="117.7598,327.1719,121.7598,337.1719,125.7598,327.1719,121.7598,331.1719" style="stroke:#181818;stroke-width:1;"/><line style="stroke:#181818;stroke-width:1;" x1="685.4399" x2="685.4399" y1="314.0234" y2="337.1719"/><polygon fill="#181818" points="681.4399,327.1719,685.4399,337.1719,689.4399,327.1719,685.4399,331.1719" style="stroke:#181818;stroke-width:1;"/><line style="stroke:#181818;stroke-width:1;" x1="554.9207" x2="554.9207" y1="230.9063" y2="250.9063"/><polygon fill="#181818" points="550.9207,240.9063,554.9207,250.9063,558.9207,240.9063,554.9207,244.9063" style="stroke:#181818;stroke-width:1;"/><line style="stroke:#181818;stroke-width:1;" x1="554.9207" x2="554.9207" y1="343.1719" y2="363.1719"/><polygon fill="#181818" points="550.9207,353.1719,554.9207,363.1719,558.9207,353.1719,554.9207,357.1719" style="stroke:#181818;stroke-width:1;"/><line style="stroke:#181818;stroke-width:1;" x1="405.583" x2="405.583" y1="485.1094" y2="505.1094"/><polygon fill="#181818" points="401.583,495.1094,405.583,505.1094,409.583,495.1094,405.583,499.1094" style="stroke:#181818;stroke-width:1;"/><line style="stroke:#181818;stroke-width:1;" x1="405.583" x2="405.583" y1="539.0781" y2="559.0781"/><polygon fill="#181818" points="401.583,549.0781,405.583,559.0781,409.583,549.0781,405.583,553.0781" style="stroke:#181818;stroke-width:1;"/><line style="stroke:#181818;stroke-width:1;" x1="405.583" x2="405.583" y1="593.0469" y2="613.0469"/><polygon fill="#181818" points="401.583,603.0469,405.583,613.0469,409.583,603.0469,405.583,607.0469" style="stroke:#181818;stroke-width:1;"/><line style="stroke:#181818;stroke-width:1;" x1="360.5266" x2="314.27" y1="679.0156" y2="679.0156"/><line style="stroke:#181818;stroke-width:1;" x1="314.27" x2="314.27" y1="679.0156" y2="701.0156"/><polygon fill="#181818" points="310.27,691.0156,314.27,701.0156,318.27,691.0156,314.27,695.0156" style="stroke:#181818;stroke-width:1;"/><line style="stroke:#181818;stroke-width:1;" x1="450.6394" x2="496.896" y1="679.0156" y2="679.0156"/><line style="stroke:#181818;stroke-width:1;" x1="496.896" x2="496.896" y1="679.0156" y2="701.0156"/><polygon fill="#181818" points="492.896,691.0156,496.896,701.0156,500.896,691.0156,496.896,695.0156" style="stroke:#181818;stroke-width:1;"/><line style="stroke:#181818;stroke-width:1;" x1="314.27" x2="314.27" y1="734.9844" y2="752.9844"/><line style="stroke:#181818;stroke-width:1;" x1="314.27" x2="393.583" y1="752.9844" y2="752.9844"/><polygon fill="#181818" points="383.583,748.9844,393.583,752.9844,383.583,756.9844,387.583,752.9844" style="stroke:#181818;stroke-width:1;"/><line style="stroke:#181818;stroke-width:1;" x1="496.896" x2="496.896" y1="734.9844" y2="752.9844"/><line style="stroke:#181818;stroke-width:1;" x1="496.896" x2="417.583" y1="752.9844" y2="752.9844"/><polygon fill="#181818" points="427.583,748.9844,417.583,752.9844,427.583,756.9844,423.583,752.9844" style="stroke:#181818;stroke-width:1;"/><line style="stroke:#181818;stroke-width:1;" x1="405.583" x2="405.583" y1="647.0156" y2="667.0156"/><polygon fill="#181818" points="401.583,657.0156,405.583,667.0156,409.583,657.0156,405.583,661.0156" style="stroke:#181818;stroke-width:1;"/><line style="stroke:#181818;stroke-width:1;" x1="487.7891" x2="405.583" y1="429.1406" y2="429.1406"/><line style="stroke:#181818;stroke-width:1;" x1="405.583" x2="405.583" y1="429.1406" y2="451.1406"/><polygon fill="#181818" points="401.583,441.1406,405.583,451.1406,409.583,441.1406,405.583,445.1406" style="stroke:#181818;stroke-width:1;"/><line style="stroke:#181818;stroke-width:1;" x1="622.0522" x2="704.2583" y1="429.1406" y2="429.1406"/><line style="stroke:#181818;stroke-width:1;" x1="704.2583" x2="704.2583" y1="429.1406" y2="451.1406"/><polygon fill="#181818" points="700.2583,441.1406,704.2583,451.1406,708.2583,441.1406,704.2583,445.1406" style="stroke:#181818;stroke-width:1;"/><line style="stroke:#181818;stroke-width:1;" x1="405.583" x2="405.583" y1="764.9844" y2="782.9844"/><line style="stroke:#181818;stroke-width:1;" x1="405.583" x2="542.9207" y1="782.9844" y2="782.9844"/><polygon fill="#181818" points="532.9207,778.9844,542.9207,782.9844,532.9207,786.9844,536.9207,782.9844" style="stroke:#181818;stroke-width:1;"/><line style="stroke:#181818;stroke-width:1;" x1="704.2583" x2="704.2583" y1="485.1094" y2="782.9844"/><line style="stroke:#181818;stroke-width:1;" x1="704.2583" x2="566.9207" y1="782.9844" y2="782.9844"/><polygon fill="#181818" points="576.9207,778.9844,566.9207,782.9844,576.9207,786.9844,572.9207,782.9844" style="stroke:#181818;stroke-width:1;"/><line style="stroke:#181818;stroke-width:1;" x1="554.9207" x2="554.9207" y1="397.1406" y2="417.1406"/><polygon fill="#181818" points="550.9207,407.1406,554.9207,417.1406,558.9207,407.1406,554.9207,411.1406" style="stroke:#181818;stroke-width:1;"/><line style="stroke:#181818;stroke-width:1;" x1="554.9207" x2="554.9207" y1="794.9844" y2="814.9844"/><polygon fill="#181818" points="550.9207,804.9844,554.9207,814.9844,558.9207,804.9844,554.9207,808.9844" style="stroke:#181818;stroke-width:1;"/><line style="stroke:#181818;stroke-width:1;" x1="554.9207" x2="554.9207" y1="848.9531" y2="868.9531"/><polygon fill="#181818" points="550.9207,858.9531,554.9207,868.9531,558.9207,858.9531,554.9207,862.9531" style="stroke:#181818;stroke-width:1;"/><line style="stroke:#181818;stroke-width:1;" x1="554.9207" x2="554.9207" y1="902.9219" y2="922.9219"/><polygon fill="#181818" points="550.9207,912.9219,554.9207,922.9219,558.9207,912.9219,554.9207,916.9219" style="stroke:#181818;stroke-width:1;"/><line style="stroke:#181818;stroke-width:1;" x1="1209.563" x2="1209.563" y1="230.9063" y2="250.9063"/><polygon fill="#181818" points="1205.563,240.9063,1209.563,250.9063,1213.563,240.9063,1209.563,244.9063" style="stroke:#181818;stroke-width:1;"/><line style="stroke:#181818;stroke-width:1;" x1="850.7479" x2="554.9207" y1="174.9375" y2="174.9375"/><line style="stroke:#181818;stroke-width:1;" x1="554.9207" x2="554.9207" y1="174.9375" y2="196.9375"/><polygon fill="#181818" points="550.9207,186.9375,554.9207,196.9375,558.9207,186.9375,554.9207,190.9375" style="stroke:#181818;stroke-width:1;"/><line style="stroke:#181818;stroke-width:1;" x1="925.7357" x2="1209.563" y1="174.9375" y2="174.9375"/><line style="stroke:#181818;stroke-width:1;" x1="1209.563" x2="1209.563" y1="174.9375" y2="196.9375"/><polygon fill="#181818" points="1205.563,186.9375,1209.563,196.9375,1213.563,186.9375,1209.563,190.9375" style="stroke:#181818;stroke-width:1;"/><line style="stroke:#181818;stroke-width:1;" x1="888.2418" x2="888.2418" y1="142.9375" y2="162.9375"/><polygon fill="#181818" points="884.2418,152.9375,888.2418,162.9375,892.2418,152.9375,888.2418,156.9375" style="stroke:#181818;stroke-width:1;"/><?plantuml-src ZLDDRzim3BtxL_3eO2YMTjZ5NZi42ReD-qXG8zsXA0p5Pc8XYkHIL8hqrvUIqw3eW6qdI-BZ8zyZxLaHPyMyHmk_SGNBRsLMJ09tQ5atYX7kAcm2QJvCEsoszsMcrv171Co_Vnv1H49-G3_A08eVJhNGubut24PxBkLnxMWh7ubMOUKRqYi4HeCxP3g0PqArAnF0Egb7UjDnklwwlZaRZyyBQGf2tqep7ZvTmeLFqKaLenS515qJhWbzLslBI7jbQe-DXrX0D_0Eb44QAD6sgSgnBL0RfUtGt1VXVrG7KCr3q5wpTXQCS_rVMfFYFTAPH-iTmTNb-VZhKmeFB_Khgfg4lkwU_j5KF2Q_efatSaC2SPza6j0usoOk7rkAKrXw2MllWnWZKIPdtav4Q6wLqT4yWUnsIWe8L5mNuUm7SSMaxuqefvMMzwGy_wbiK0QkO66KjTZAQOPh5GoFZaaL3bonx8cR7HoDFA8MI5uMuGGGuK5a0Ev5qu29KcR3pgXc-wS2OLccyST5y2o78G-DHyYjEw6gpZtAziKTwrdl4P181dCNX_NXuttvuhPUPs-pYwa8qJOWx9pLx4ZRJPczeECqvdqqHXanYl11B6VvzeuOycbr-tunkqx6o2-m0HUIDC-kprxN-PyEXwHOzXa0?></g></svg>