<svg xmlns="http://www.w3.org/2000/svg" xmlns:xlink="http://www.w3.org/1999/xlink" contentStyleType="text/css" data-diagram-type="DESCRIPTION" height="650px" preserveAspectRatio="none" style="width:1675px;height:650px;background:#FFFFFF;" version="1.1" viewBox="0 0 1675 650" width="1675px" zoomAndPan="magnify"><?plantuml 1.2026.3beta5?><defs/><g><!--cluster ui--><g class="cluster" data-qualified-name="ui" data-source-line="3" id="ent0002"><rect fill="none" height="194.76" rx="2.5" ry="2.5" style="stroke:#181818;stroke-width:1;" width="246" x="1415" y="7"/><text fill="#000000" font-family="sans-serif" font-size="14" font-weight="700" lengthAdjust="spacing" textLength="14.7656" x="1530.6172" y="21.9951">ui</text></g><!--cluster api--><g class="cluster" data-qualified-name="api" data-source-line="7" id="ent0006"><rect fill="none" height="194.76" rx="2.5" ry="2.5" style="stroke:#181818;stroke-width:1;" width="172" x="1203" y="130.27"/><text fill="#000000" font-family="sans-serif" font-size="14" font-weight="700" lengthAdjust="spacing" textLength="24.2676" x="1276.8662" y="145.2651">api</text></g><!--cluster domain--><g class="cluster" data-qualified-name="domain" data-source-line="11" id="ent0010"><rect fill="none" height="136.85" rx="2.5" ry="2.5" style="stroke:#181818;stroke-width:1;" width="334" x="7" y="500.07"/><text fill="#000000" font-family="sans-serif" font-size="14" font-weight="700" lengthAdjust="spacing" textLength="58.4404" x="144.7798" y="515.0651">domain</text></g><!--cluster application--><g class="cluster" data-qualified-name="application" data-source-line="15" id="ent0014"><rect fill="none" height="194.75" rx="2.5" ry="2.5" style="stroke:#181818;stroke-width:1;" width="226" x="937" y="253.54"/><text fill="#000000" font-family="sans-serif" font-size="14" font-weight="700" lengthAdjust="spacing" textLength="87.9102" x="1006.0449" y="268.5351">application</text></g><!--cluster persistence--><g class="cluster" data-qualified-name="persistence" data-source-line="19" id="ent0018"><rect fill="none" height="187.19" rx="2.5" ry="2.5" style="stroke:#181818;stroke-width:1;" width="238" x="381" y="376.8"/><text fill="#000000" font-family="sans-serif" font-size="14" font-weight="700" lengthAdjust="spacing" textLength="91.834" x="454.083" y="391.7951">persistence</text></g><!--cluster security--><g class="cluster" data-qualified-name="security" data-source-line="23" id="ent0022"><rect fill="none" height="187.19" rx="2.5" ry="2.5" style="stroke:#181818;stroke-width:1;" width="238" x="659" y="376.8"/><text fill="#000000" font-family="sans-serif" font-size="14" font-weight="700" lengthAdjust="spacing" textLength="63.6152" x="746.1924" y="391.7951">security</text></g><!--cluster audit--><g class="cluster" data-qualified-name="audit" data-source-line="27" id="ent0026"><rect fill="none" height="187.19" rx="2.5" ry="2.5" style="stroke:#181818;stroke-width:1;" width="206" x="1203" y="376.8"/><text fill="#000000" font-family="sans-serif" font-size="14" font-weight="700" lengthAdjust="spacing" textLength="40.9268" x="1285.5366" y="391.7951">audit</text></g><g class="entity" data-qualified-name="ui.GMN3" data-source-line="4" id="ent0004"><path d="M1439.13,50 L1439.13,90.2656 L1636.8741,90.2656 L1636.8741,60 L1626.8741,50 L1439.13,50" fill="#FEFFDD" style="stroke:#181818;stroke-width:0.5;"/><path d="M1626.8741,50 L1626.8741,60 L1636.8741,60 L1626.8741,50" fill="#FEFFDD" style="stroke:#181818;stroke-width:1;"/><text fill="#000000" font-family="sans-serif" font-size="13" lengthAdjust="spacing" textLength="176.7441" x="1445.13" y="67.0669">HTML5 Web UI (no plugins)</text><text fill="#000000" font-family="sans-serif" font-size="13" lengthAdjust="spacing" textLength="115.8892" x="1445.13" y="82.1997">MVC presentation</text></g><g class="entity" data-qualified-name="api.GMN7" data-source-line="8" id="ent0008"><path d="M1227.48,173.27 L1227.48,213.5356 L1350.5249,213.5356 L1350.5249,183.27 L1340.5249,173.27 L1227.48,173.27" fill="#FEFFDD" style="stroke:#181818;stroke-width:0.5;"/><path d="M1340.5249,173.27 L1340.5249,183.27 L1350.5249,183.27 L1340.5249,173.27" fill="#FEFFDD" style="stroke:#181818;stroke-width:1;"/><text fill="#000000" font-family="sans-serif" font-size="13" lengthAdjust="spacing" textLength="102.0449" x="1233.48" y="190.3369">HTTP endpoints</text><text fill="#000000" font-family="sans-serif" font-size="13" lengthAdjust="spacing" textLength="73.9375" x="1233.48" y="205.4697">HTTPS-only</text></g><g class="entity" data-qualified-name="domain.GMN11" data-source-line="12" id="ent0012"><path d="M30.91,543.07 L30.91,568.2028 L317.0897,568.2028 L317.0897,553.07 L307.0897,543.07 L30.91,543.07" fill="#FEFFDD" style="stroke:#181818;stroke-width:0.5;"/><path d="M307.0897,543.07 L307.0897,553.07 L317.0897,553.07 L307.0897,543.07" fill="#FEFFDD" style="stroke:#181818;stroke-width:1;"/><text fill="#000000" font-family="sans-serif" font-size="13" lengthAdjust="spacing" textLength="265.1797" x="36.91" y="560.1369">Core model: sessions, questions, scoring</text></g><g class="entity" data-qualified-name="application.GMN15" data-source-line="16" id="ent0016"><path d="M961.23,296.54 L961.23,336.8056 L1138.7632,336.8056 L1138.7632,306.54 L1128.7632,296.54 L961.23,296.54" fill="#FEFFDD" style="stroke:#181818;stroke-width:0.5;"/><path d="M1128.7632,296.54 L1128.7632,306.54 L1138.7632,306.54 L1128.7632,296.54" fill="#FEFFDD" style="stroke:#181818;stroke-width:1;"/><text fill="#000000" font-family="sans-serif" font-size="13" lengthAdjust="spacing" textLength="156.5332" x="967.23" y="313.6069">Use-cases orchestration</text><text fill="#000000" font-family="sans-serif" font-size="13" lengthAdjust="spacing" textLength="150.2427" x="967.23" y="328.7397">validation + publishing</text></g><g class="entity" data-qualified-name="persistence.GMN19" data-source-line="20" id="ent0020"><path d="M404.91,419.8 L404.91,460.0656 L595.0941,460.0656 L595.0941,429.8 L585.0941,419.8 L404.91,419.8" fill="#FEFFDD" style="stroke:#181818;stroke-width:0.5;"/><path d="M585.0941,419.8 L585.0941,429.8 L595.0941,429.8 L585.0941,419.8" fill="#FEFFDD" style="stroke:#181818;stroke-width:1;"/><text fill="#000000" font-family="sans-serif" font-size="13" lengthAdjust="spacing" textLength="140.1055" x="410.91" y="436.8669">File-based JSON store</text><text fill="#000000" font-family="sans-serif" font-size="13" lengthAdjust="spacing" textLength="169.1841" x="410.91" y="451.9997">atomic rename semantics</text></g><g class="entity" data-qualified-name="security.GMN23" data-source-line="24" id="ent0024"><path d="M682.7,419.8 L682.7,460.0656 L873.303,460.0656 L873.303,429.8 L863.303,419.8 L682.7,419.8" fill="#FEFFDD" style="stroke:#181818;stroke-width:0.5;"/><path d="M863.303,419.8 L863.303,429.8 L873.303,429.8 L863.303,419.8" fill="#FEFFDD" style="stroke:#181818;stroke-width:1;"/><text fill="#000000" font-family="sans-serif" font-size="13" lengthAdjust="spacing" textLength="83.9478" x="688.7" y="436.8669">AuthN/AuthZ</text><text fill="#000000" font-family="sans-serif" font-size="13" lengthAdjust="spacing" textLength="169.603" x="688.7" y="451.9997">lockout + session timeout</text></g><g class="entity" data-qualified-name="audit.GMN27" data-source-line="28" id="ent0028"><path d="M1226.6,419.8 L1226.6,460.0656 L1385.4076,460.0656 L1385.4076,429.8 L1375.4076,419.8 L1226.6,419.8" fill="#FEFFDD" style="stroke:#181818;stroke-width:0.5;"/><path d="M1375.4076,419.8 L1375.4076,429.8 L1385.4076,429.8 L1375.4076,419.8" fill="#FEFFDD" style="stroke:#181818;stroke-width:1;"/><text fill="#000000" font-family="sans-serif" font-size="13" lengthAdjust="spacing" textLength="119.374" x="1232.6" y="436.8669">Append-only audit</text><text fill="#000000" font-family="sans-serif" font-size="13" lengthAdjust="spacing" textLength="137.8076" x="1232.6" y="451.9997">retention &gt;= 2 years</text></g><!--link GMN3 to ui--><g class="link" data-entity-1="ent0004" data-entity-2="ent0002" data-link-type="association" data-source-line="4" id="lnk5"><path d="M1528.68,90.62 C1512.54,124.36 1481.01,190.3 1480.02,192.35" fill="none" id="GMN3-ui" style="stroke:#181818;stroke-width:1;stroke-dasharray:7,7;"/></g><!--link GMN7 to api--><g class="link" data-entity-1="ent0008" data-entity-2="ent0006" data-link-type="association" data-source-line="8" id="lnk9"><path d="M1289,213.89 C1289,247.63 1289,313.57 1289,315.62" fill="none" id="GMN7-api" style="stroke:#181818;stroke-width:1;stroke-dasharray:7,7;"/></g><!--link GMN11 to domain--><g class="link" data-entity-1="ent0012" data-entity-2="ent0010" data-link-type="association" data-source-line="12" id="lnk13"><path d="M200.61,568.61 C243.75,588.03 324.92,624.57 332.44,627.95" fill="none" id="GMN11-domain" style="stroke:#181818;stroke-width:1;stroke-dasharray:7,7;"/></g><!--link GMN15 to application--><g class="link" data-entity-1="ent0016" data-entity-2="ent0014" data-link-type="association" data-source-line="16" id="lnk17"><path d="M1041.48,337.15 C1026.74,370.9 997.92,436.83 997.02,438.89" fill="none" id="GMN15-application" style="stroke:#181818;stroke-width:1;stroke-dasharray:7,7;"/></g><!--link GMN19 to persistence--><g class="link" data-entity-1="ent0020" data-entity-2="ent0018" data-link-type="association" data-source-line="20" id="lnk21"><path d="M500,460.48 C500,492.48 500,552.71 500,554.59" fill="none" id="GMN19-persistence" style="stroke:#181818;stroke-width:1;stroke-dasharray:7,7;"/></g><!--link GMN23 to security--><g class="link" data-entity-1="ent0024" data-entity-2="ent0022" data-link-type="association" data-source-line="24" id="lnk25"><path d="M778,460.48 C778,492.48 778,552.71 778,554.59" fill="none" id="GMN23-security" style="stroke:#181818;stroke-width:1;stroke-dasharray:7,7;"/></g><!--link GMN27 to audit--><g class="link" data-entity-1="ent0028" data-entity-2="ent0026" data-link-type="association" data-source-line="28" id="lnk29"><path d="M1289.67,460.48 C1262.93,492.48 1212.6,552.71 1211.04,554.59" fill="none" id="GMN27-audit" style="stroke:#181818;stroke-width:1;stroke-dasharray:7,7;"/></g><!--link ui to api--><g class="link" data-entity-1="ent0002" data-entity-2="ent0006" data-link-type="dependency" data-source-line="31" id="lnk30"><path d="M1468.1187,201.9467 C1467.3737,202.4197 1466.5982,202.9122 1465.7936,203.4231 C1464.1842,204.4449 1462.4583,205.5408 1460.6263,206.704 C1456.9623,209.0304 1452.8742,211.6259 1448.4469,214.4369 C1430.7375,225.6806 1407.6,240.37 1384.465,255.0575 C1381.5731,256.8934 1378.6813,258.7293 1375.8001,260.5585 C1375.62,260.6728 1380.5054,257.5713 1380.3254,257.6856" fill="none" id="ui-to-api" style="stroke:#181818;stroke-width:1;stroke-dasharray:7,7;"/><polygon fill="#181818" points="1375.26,260.9014,1385.002,259.4546,1379.4812,258.2215,1380.7143,252.7007,1375.26,260.9014" style="stroke:#181818;stroke-width:1;"/></g><!--link api to application--><g class="link" data-entity-1="ent0006" data-entity-2="ent0014" data-link-type="dependency" data-source-line="32" id="lnk31"><path d="M1271.2416,325.0436 C1270.9551,325.1625 1270.6656,325.2828 1270.3731,325.4042 C1269.788,325.6472 1269.1911,325.8951 1268.5824,326.1479 C1266.1478,327.1589 1263.5262,328.2476 1260.7346,329.407 C1255.1513,331.7256 1248.888,334.3267 1242.0806,337.1537 C1228.4659,342.8078 1212.6752,349.3656 1195.7965,356.3752 C1187.3571,359.88 1178.6458,363.4978 1169.7986,367.172 C1167.5868,368.0906 1170.9076,366.7114 1168.6809,367.6362" fill="none" id="api-to-application" style="stroke:#181818;stroke-width:1;stroke-dasharray:7,7;"/><polygon fill="#181818" points="1163.1398,369.9374,1172.9857,370.1797,1167.7574,368.0197,1169.9174,362.7914,1163.1398,369.9374" style="stroke:#181818;stroke-width:1;"/></g><!--link application to domain--><g class="link" data-entity-1="ent0014" data-entity-2="ent0010" data-link-type="dependency" data-source-line="33" id="lnk32"><path d="M994.8334,448.4123 C994.7639,448.638 994.6928,448.8682 994.6199,449.1029 C994.3286,450.0416 994.0099,451.0519 993.6635,452.1288 C992.9708,454.2827 992.1674,456.703 991.2509,459.3503 C987.585,469.9394 982.1088,484.1587 974.66,499.4725 C959.7625,530.1 936.975,565.105 905,584.2 C878.065,600.285 739.0775,611.195 604.865,618.1275 C537.7588,621.5937 471.8463,624.0656 421.7309,625.6928 C396.6733,626.5064 375.5649,627.1088 360.2313,627.5188 C352.5645,627.7238 352.3396,627.7342 347.7883,627.8453" fill="none" id="application-to-domain" style="stroke:#181818;stroke-width:1;stroke-dasharray:7,7;"/><polygon fill="#181818" points="341.7901,627.9917,350.885,631.7709,346.7886,627.8697,350.6898,623.7733,341.7901,627.9917" style="stroke:#181818;stroke-width:1;"/></g><!--link application to persistence--><g class="link" data-entity-1="ent0014" data-entity-2="ent0018" data-link-type="dependency" data-source-line="34" id="lnk33"><path d="M979.2668,448.4176 C979.0245,448.5152 978.7802,448.6134 978.5339,448.7122 C978.0412,448.9099 977.5405,449.1101 977.032,449.3127 C976.0151,449.7179 974.9671,450.1325 973.8898,450.5554 C969.5808,452.2471 964.8038,454.0709 959.6775,455.9487 C939.1725,463.46 913.08,471.835 889,476.07 C836.88,485.23 702.46,471.73 651,484.07 C642.1363,486.195 633.1677,488.8655 624.2542,491.915 C623.14,492.2962 622.0267,492.6833 620.9146,493.076 C620.3585,493.2723 625.4508,491.4454 624.8953,491.6445" fill="none" id="application-to-persistence" style="stroke:#181818;stroke-width:1;stroke-dasharray:7,7;"/><polygon fill="#181818" points="619.2473,493.6692,629.0692,494.3976,623.954,491.982,626.3696,486.8668,619.2473,493.6692" style="stroke:#181818;stroke-width:1;"/></g><!--link application to security--><g class="link" data-entity-1="ent0014" data-entity-2="ent0022" data-link-type="dependency" data-source-line="35" id="lnk34"><path d="M982.7283,448.3463 C982.5104,448.4595 982.2903,448.5737 982.0681,448.6891 C981.6237,448.9198 981.1707,449.155 980.7094,449.3945 C978.864,450.3526 976.885,451.38 974.7843,452.4706 C970.5831,454.6518 965.8955,457.0854 960.8191,459.7209 C950.6661,464.992 938.9573,471.0709 926.4709,477.5533 C920.2277,480.7946 913.7901,484.1367 907.2555,487.5292 C903.9882,489.2255 900.6965,490.9344 897.3928,492.6495 C897.2896,492.7031 902.5115,489.9921 902.4082,490.0457" fill="none" id="application-to-security" style="stroke:#181818;stroke-width:1;stroke-dasharray:7,7;"/><polygon fill="#181818" points="897.0831,492.8103,906.9138,492.2135,901.5207,490.5065,903.2277,485.1134,897.0831,492.8103" style="stroke:#181818;stroke-width:1;"/></g><!--link application to audit--><g class="link" data-entity-1="ent0014" data-entity-2="ent0026" data-link-type="dependency" data-source-line="36" id="lnk35"><path d="M1010.9458,448.3463 C1011.1587,448.4595 1011.3737,448.5737 1011.5909,448.6891 C1012.0251,448.9198 1012.4677,449.155 1012.9184,449.3945 C1014.7215,450.3526 1016.6552,451.38 1018.7077,452.4706 C1022.8127,454.6518 1027.3929,457.0854 1032.3533,459.7209 C1052.1947,470.2631 1078.1181,484.0363 1104.0388,497.8075 C1129.9594,511.5788 1155.8772,525.3481 1175.7073,535.8828 C1185.6224,541.1502 1194.0156,545.6088 1200.1262,548.8547 C1200.8901,549.2605 1201.6182,549.6473 1202.3092,550.0143 C1202.482,550.1061 1197.3536,547.382 1197.5216,547.4713" fill="none" id="application-to-audit" style="stroke:#181818;stroke-width:1;stroke-dasharray:7,7;"/><polygon fill="#181818" points="1202.8205,550.2859,1196.7486,542.5314,1198.4048,547.9404,1192.9958,549.5966,1202.8205,550.2859" style="stroke:#181818;stroke-width:1;"/></g><!--link persistence to domain--><g class="link" data-entity-1="ent0018" data-entity-2="ent0010" data-link-type="dependency" data-source-line="37" id="lnk36"><path d="M482.3303,564.2063 C481.9294,564.3781 481.5229,564.5523 481.1111,564.7287 C480.2874,565.0816 479.4421,565.4438 478.5764,565.8147 C476.845,566.5565 475.0318,567.3334 473.1456,568.1416 C458.0563,574.6069 438.2975,583.0737 418.395,591.6025 C398.4925,600.1313 378.4463,608.7219 362.7819,615.4347 C354.9497,618.7911 348.213,621.678 343.1374,623.8531 C342.503,624.125 341.8945,624.3857 341.3131,624.6349 C341.2404,624.666 346.6831,622.3337 346.6113,622.3644" fill="none" id="persistence-to-domain" style="stroke:#181818;stroke-width:1;stroke-dasharray:7,7;"/><polygon fill="#181818" points="341.0963,624.7278,350.9443,624.8594,345.6921,622.7583,347.7932,617.5062,341.0963,624.7278" style="stroke:#181818;stroke-width:1;"/></g><!--link security to domain--><g class="link" data-entity-1="ent0022" data-entity-2="ent0010" data-link-type="dependency" data-source-line="38" id="lnk37"><path d="M739.3858,564.0345 C738.5622,564.1901 737.729,564.3473 736.8866,564.5061 C733.5168,565.1415 729.9994,565.8023 726.3575,566.4838 C697.2225,571.935 660.125,578.7 627,584.2 C563.87,594.685 492.92,605.335 436.5363,613.5312 C408.3444,617.6294 383.7941,621.1141 365.6836,623.658 C356.6284,624.9299 349.1831,625.9667 343.6976,626.7273 C343.0119,626.8224 342.3568,626.9132 341.733,626.9995 C341.5771,627.0211 347.3664,626.2198 347.2144,626.2408" fill="none" id="security-to-domain" style="stroke:#181818;stroke-width:1;stroke-dasharray:7,7;"/><polygon fill="#181818" points="341.2711,627.0635,350.7345,629.7917,346.2239,626.3779,349.6376,621.8672,341.2711,627.0635" style="stroke:#181818;stroke-width:1;"/></g><!--link audit to domain--><g class="link" data-entity-1="ent0026" data-entity-2="ent0010" data-link-type="dependency" data-source-line="39" id="lnk38"><path d="M1202.8455,557.6911 C1202.5687,557.7267 1202.2853,557.7631 1201.9955,557.8003 C1201.4158,557.8747 1200.8101,557.9524 1200.179,558.0332 C1198.9168,558.1949 1197.5529,558.3692 1196.0921,558.5555 C1193.1704,558.928 1189.8607,559.3481 1186.2008,559.81 C1171.5609,561.6575 1151.3156,564.1725 1127.8687,566.975 C1080.975,572.58 1021.275,579.335 968,584.2 C830.44,596.76 675.82,607.545 553.5975,615.2937 C492.4863,619.1681 439.4744,622.2834 400.7441,624.482 C381.3789,625.5813 365.5841,626.4514 354.1325,627.0727 C351.2696,627.228 348.6782,627.3677 346.3703,627.4916 C345.2163,627.5536 344.1332,627.6115 343.1225,627.6655 C342.6172,627.6925 348.1214,627.3993 347.6525,627.4243" fill="none" id="audit-to-domain" style="stroke:#181818;stroke-width:1;stroke-dasharray:7,7;"/><polygon fill="#181818" points="341.661,627.7435,350.861,631.2591,346.6539,627.4775,350.4354,623.2704,341.661,627.7435" style="stroke:#181818;stroke-width:1;"/></g><?plantuml-src RL9TIyD047pFhzX7HQiW-1Am80LHyGjg5IGlrylQBhtidRSReOZ_tKjIszJu4YupbvdPsSYAE9XeAWZ6him2fxfs216j6buupB8D3ZN1LmR0NX7K1_3l3PJ3zVFztJcyuXncDt307eAh5yHoMF3zomH2H45Me-Gv-zx9cJ3KQx16yFa9aClWYLKARjwd8yzktV--z9KX7aXiu1mcFY9KlaINWw18ifTZ-AXHj3kAzP5uiPyfEB9jr7-oxRWSPe8ZQv8k-6YNIJEsJC6Vnb7PtJg2KCyToVAFIy0e98fiSU3IvtAu8eUZUR8fuNRw-02YQQY2ZVgARDeHcmhJS9LX9Ijz3q5RHzBrm61Bv71Pw_BXj7c-5UoyNVbQK-XDMQ1KOKBs-gbBqc4pBPhqGaXRQnVLOGL7JAEqPOmlu0pMQ68RC_qu9oVZPjzPi_FklEqtwtVTSDrI1t2lh07tE-U0Q9Db_Pvx3jjs-gxjU3lW1m00?></g></svg>