<svg xmlns="http://www.w3.org/2000/svg" xmlns:xlink="http://www.w3.org/1999/xlink" contentStyleType="text/css" data-diagram-type="CLASS" height="980px" preserveAspectRatio="none" style="width:1732px;height:980px;background:#FFFFFF;" version="1.1" viewBox="0 0 1732 980" width="1732px" zoomAndPan="magnify"><?plantuml 1.2026.3beta5?><defs/><g><!--class GameSession--><g class="entity" data-qualified-name="GameSession" data-source-line="3" id="ent0002"><rect fill="#F1F1F1" height="194.6719" rx="2.5" ry="2.5" style="stroke:#181818;stroke-width:0.5;" width="325.4209" x="1391.83" y="7"/><ellipse cx="1502.7431" cy="23" fill="#ADD1B2" rx="11" ry="11" style="stroke:#181818;stroke-width:1;"/><path d="M1505.7118,28.6406 Q1505.1337,28.9375 1504.4931,29.0781 Q1503.8525,29.2344 1503.1493,29.2344 Q1500.6493,29.2344 1499.3212,27.5938 Q1498.0087,25.9375 1498.0087,22.8125 Q1498.0087,19.6875 1499.3212,18.0313 Q1500.6493,16.375 1503.1493,16.375 Q1503.8525,16.375 1504.4931,16.5313 Q1505.1493,16.6875 1505.7118,16.9844 L1505.7118,19.7031 Q1505.0868,19.125 1504.4931,18.8594 Q1503.8993,18.5781 1503.2743,18.5781 Q1501.9306,18.5781 1501.2431,19.6563 Q1500.5556,20.7188 1500.5556,22.8125 Q1500.5556,24.9063 1501.2431,25.9844 Q1501.9306,27.0469 1503.2743,27.0469 Q1503.8993,27.0469 1504.4931,26.7813 Q1505.0868,26.5 1505.7118,25.9219 L1505.7118,28.6406 Z " fill="#000000"/><text fill="#000000" font-family="sans-serif" font-size="14" lengthAdjust="spacing" textLength="95.0947" x="1523.2431" y="27.8467">GameSession</text><line style="stroke:#181818;stroke-width:0.5;" x1="1392.83" x2="1716.2509" y1="39" y2="39"/><text fill="#000000" font-family="sans-serif" font-size="14" lengthAdjust="spacing" textLength="127.5176" x="1397.83" y="55.9951">+sessionId: String</text><text fill="#000000" font-family="sans-serif" font-size="14" lengthAdjust="spacing" textLength="151.2861" x="1397.83" y="72.292">+startedAtUtc: String</text><text fill="#000000" font-family="sans-serif" font-size="14" lengthAdjust="spacing" textLength="191.6113" x="1397.83" y="88.5889">+currentQuestionIndex: int</text><text fill="#000000" font-family="sans-serif" font-size="14" lengthAdjust="spacing" textLength="77.0752" x="1397.83" y="104.8857">+score: int</text><text fill="#000000" font-family="sans-serif" font-size="14" lengthAdjust="spacing" textLength="105.6973" x="1397.83" y="121.1826">+status: String</text><line style="stroke:#181818;stroke-width:0.5;" x1="1392.83" x2="1716.2509" y1="128.4844" y2="128.4844"/><text fill="#000000" font-family="sans-serif" font-size="14" lengthAdjust="spacing" textLength="94.0557" x="1397.83" y="145.4795">+start(): void</text><text fill="#000000" font-family="sans-serif" font-size="14" lengthAdjust="spacing" textLength="188.3164" x="1397.83" y="161.7764">+nextQuestion(): Question</text><text fill="#000000" font-family="sans-serif" font-size="14" lengthAdjust="spacing" textLength="313.4209" x="1397.83" y="178.0732">+submitAnswer(answerId: String): Feedback</text><text fill="#000000" font-family="sans-serif" font-size="14" lengthAdjust="spacing" textLength="87.8213" x="1397.83" y="194.3701">+end(): void</text></g><!--class QuestionBank--><g class="entity" data-qualified-name="QuestionBank" data-source-line="15" id="ent0003"><rect fill="#F1F1F1" height="137.75" rx="2.5" ry="2.5" style="stroke:#181818;stroke-width:0.5;" width="258.0117" x="1262.53" y="310.1"/><ellipse cx="1338.3952" cy="330.2328" fill="#ADD1B2" rx="11" ry="11" style="stroke:#181818;stroke-width:1;"/><path d="M1341.364,335.8734 Q1340.7859,336.1703 1340.1452,336.3109 Q1339.5046,336.4672 1338.8015,336.4672 Q1336.3015,336.4672 1334.9734,334.8266 Q1333.6609,333.1703 1333.6609,330.0453 Q1333.6609,326.9203 1334.9734,325.2641 Q1336.3015,323.6078 1338.8015,323.6078 Q1339.5046,323.6078 1340.1452,323.7641 Q1340.8015,323.9203 1341.364,324.2172 L1341.364,326.9359 Q1340.739,326.3578 1340.1452,326.0922 Q1339.5515,325.8109 1338.9265,325.8109 Q1337.5827,325.8109 1336.8952,326.8891 Q1336.2077,327.9516 1336.2077,330.0453 Q1336.2077,332.1391 1336.8952,333.2172 Q1337.5827,334.2797 1338.9265,334.2797 Q1339.5515,334.2797 1340.1452,334.0141 Q1340.739,333.7328 1341.364,333.1547 L1341.364,335.8734 Z " fill="#000000"/><text fill="#000000" font-family="sans-serif" font-size="12" font-style="italic" lengthAdjust="spacing" textLength="70.1602" x="1372.7058" y="326.2387">&#171;persisted&#187;</text><text fill="#000000" font-family="sans-serif" font-size="14" lengthAdjust="spacing" textLength="97.7813" x="1358.8952" y="342.0639">QuestionBank</text><line style="stroke:#181818;stroke-width:0.5;" x1="1263.53" x2="1519.5417" y1="350.3656" y2="350.3656"/><text fill="#000000" font-family="sans-serif" font-size="14" lengthAdjust="spacing" textLength="113.9551" x="1268.53" y="367.3607">+version: String</text><text fill="#000000" font-family="sans-serif" font-size="14" lengthAdjust="spacing" textLength="159.3936" x="1268.53" y="383.6576">+updatedAtUtc: String</text><line style="stroke:#181818;stroke-width:0.5;" x1="1263.53" x2="1519.5417" y1="390.9594" y2="390.9594"/><text fill="#000000" font-family="sans-serif" font-size="14" lengthAdjust="spacing" textLength="91.3691" x="1268.53" y="407.9545">+load(): void</text><text fill="#000000" font-family="sans-serif" font-size="14" lengthAdjust="spacing" textLength="246.0117" x="1268.53" y="424.2514">+getQuestion(index: int): Question</text><text fill="#000000" font-family="sans-serif" font-size="14" lengthAdjust="spacing" textLength="89.5713" x="1268.53" y="440.5482">+count(): int</text></g><!--class Question--><g class="entity" data-qualified-name="Question" data-source-line="23" id="ent0004"><rect fill="#F1F1F1" height="145.7813" rx="2.5" ry="2.5" style="stroke:#181818;stroke-width:0.5;" width="188.832" x="1297.12" y="576.71"/><ellipse cx="1355.9774" cy="592.71" fill="#ADD1B2" rx="11" ry="11" style="stroke:#181818;stroke-width:1;"/><path d="M1358.9462,598.3506 Q1358.368,598.6475 1357.7274,598.7881 Q1357.0868,598.9444 1356.3837,598.9444 Q1353.8837,598.9444 1352.5555,597.3038 Q1351.243,595.6475 1351.243,592.5225 Q1351.243,589.3975 1352.5555,587.7413 Q1353.8837,586.085 1356.3837,586.085 Q1357.0868,586.085 1357.7274,586.2413 Q1358.3837,586.3975 1358.9462,586.6944 L1358.9462,589.4131 Q1358.3212,588.835 1357.7274,588.5694 Q1357.1337,588.2881 1356.5087,588.2881 Q1355.1649,588.2881 1354.4774,589.3663 Q1353.7899,590.4288 1353.7899,592.5225 Q1353.7899,594.6163 1354.4774,595.6944 Q1355.1649,596.7569 1356.5087,596.7569 Q1357.1337,596.7569 1357.7274,596.4913 Q1358.3212,596.21 1358.9462,595.6319 L1358.9462,598.3506 Z " fill="#000000"/><text fill="#000000" font-family="sans-serif" font-size="14" lengthAdjust="spacing" textLength="62.6172" x="1376.4774" y="597.5567">Question</text><line style="stroke:#181818;stroke-width:0.5;" x1="1298.12" x2="1484.952" y1="608.71" y2="608.71"/><text fill="#000000" font-family="sans-serif" font-size="14" lengthAdjust="spacing" textLength="136.1787" x="1303.12" y="625.7051">+questionId: String</text><text fill="#000000" font-family="sans-serif" font-size="14" lengthAdjust="spacing" textLength="113.9004" x="1303.12" y="642.002">+prompt: String</text><text fill="#000000" font-family="sans-serif" font-size="14" lengthAdjust="spacing" textLength="163.2422" x="1303.12" y="658.2989">+choices: List&lt;String&gt;</text><text fill="#000000" font-family="sans-serif" font-size="14" lengthAdjust="spacing" textLength="176.832" x="1303.12" y="674.5957">+correctAnswerId: String</text><text fill="#000000" font-family="sans-serif" font-size="14" lengthAdjust="spacing" textLength="123.4365" x="1303.12" y="690.8926">+difficulty: String</text><line style="stroke:#181818;stroke-width:0.5;" x1="1298.12" x2="1484.952" y1="698.1944" y2="698.1944"/><text fill="#000000" font-family="sans-serif" font-size="14" lengthAdjust="spacing" textLength="144.0059" x="1303.12" y="715.1895">+validate(): boolean</text></g><!--class Feedback--><g class="entity" data-qualified-name="Feedback" data-source-line="32" id="ent0005"><rect fill="#F1F1F1" height="96.8906" rx="2.5" ry="2.5" style="stroke:#181818;stroke-width:0.5;" width="154.4541" x="1555.31" y="330.53"/><ellipse cx="1595.0679" cy="346.53" fill="#ADD1B2" rx="11" ry="11" style="stroke:#181818;stroke-width:1;"/><path d="M1598.0367,352.1706 Q1597.4585,352.4675 1596.8179,352.6081 Q1596.1773,352.7644 1595.4742,352.7644 Q1592.9742,352.7644 1591.646,351.1238 Q1590.3335,349.4675 1590.3335,346.3425 Q1590.3335,343.2175 1591.646,341.5613 Q1592.9742,339.905 1595.4742,339.905 Q1596.1773,339.905 1596.8179,340.0613 Q1597.4742,340.2175 1598.0367,340.5144 L1598.0367,343.2331 Q1597.4117,342.655 1596.8179,342.3894 Q1596.2242,342.1081 1595.5992,342.1081 Q1594.2554,342.1081 1593.5679,343.1863 Q1592.8804,344.2488 1592.8804,346.3425 Q1592.8804,348.4363 1593.5679,349.5144 Q1594.2554,350.5769 1595.5992,350.5769 Q1596.2242,350.5769 1596.8179,350.3113 Q1597.4117,350.03 1598.0367,349.4519 L1598.0367,352.1706 Z " fill="#000000"/><text fill="#000000" font-family="sans-serif" font-size="14" lengthAdjust="spacing" textLength="67.4365" x="1614.5697" y="351.3767">Feedback</text><line style="stroke:#181818;stroke-width:0.5;" x1="1556.31" x2="1708.7641" y1="362.53" y2="362.53"/><text fill="#000000" font-family="sans-serif" font-size="14" lengthAdjust="spacing" textLength="139.7061" x="1561.31" y="379.5251">+isCorrect: boolean</text><text fill="#000000" font-family="sans-serif" font-size="14" lengthAdjust="spacing" textLength="125.5967" x="1561.31" y="395.822">+message: String</text><text fill="#000000" font-family="sans-serif" font-size="14" lengthAdjust="spacing" textLength="142.4541" x="1561.31" y="412.1189">+awardedPoints: int</text><line style="stroke:#181818;stroke-width:0.5;" x1="1556.31" x2="1708.7641" y1="419.4206" y2="419.4206"/></g><!--class AdminUser--><g class="entity" data-qualified-name="AdminUser" data-source-line="38" id="ent0006"><rect fill="#F1F1F1" height="186.6406" rx="2.5" ry="2.5" style="stroke:#181818;stroke-width:0.5;" width="306.5127" x="279.28" y="556.28"/><ellipse cx="389.8991" cy="576.4128" fill="#ADD1B2" rx="11" ry="11" style="stroke:#181818;stroke-width:1;"/><path d="M392.8679,582.0534 Q392.2898,582.3503 391.6491,582.4909 Q391.0085,582.6472 390.3054,582.6472 Q387.8054,582.6472 386.4773,581.0066 Q385.1648,579.3503 385.1648,576.2253 Q385.1648,573.1003 386.4773,571.4441 Q387.8054,569.7878 390.3054,569.7878 Q391.0085,569.7878 391.6491,569.9441 Q392.3054,570.1003 392.8679,570.3972 L392.8679,573.1159 Q392.2429,572.5378 391.6491,572.2722 Q391.0554,571.9909 390.4304,571.9909 Q389.0866,571.9909 388.3991,573.0691 Q387.7116,574.1316 387.7116,576.2253 Q387.7116,578.3191 388.3991,579.3972 Q389.0866,580.4597 390.4304,580.4597 Q391.0554,580.4597 391.6491,580.1941 Q392.2429,579.9128 392.8679,579.3347 L392.8679,582.0534 Z " fill="#000000"/><text fill="#000000" font-family="sans-serif" font-size="12" font-style="italic" lengthAdjust="spacing" textLength="70.1602" x="413.7063" y="572.4187">&#171;persisted&#187;</text><text fill="#000000" font-family="sans-serif" font-size="14" lengthAdjust="spacing" textLength="76.7744" x="410.3991" y="588.2439">AdminUser</text><line style="stroke:#181818;stroke-width:0.5;" x1="280.28" x2="584.7927" y1="596.5456" y2="596.5456"/><text fill="#000000" font-family="sans-serif" font-size="14" lengthAdjust="spacing" textLength="119.5605" x="285.28" y="613.5407">+adminId: String</text><text fill="#000000" font-family="sans-serif" font-size="14" lengthAdjust="spacing" textLength="132.918" x="285.28" y="629.8376">+username: String</text><text fill="#000000" font-family="sans-serif" font-size="14" lengthAdjust="spacing" textLength="157.9854" x="285.28" y="646.1345">-passwordHash: String</text><text fill="#000000" font-family="sans-serif" font-size="14" lengthAdjust="spacing" textLength="137.7236" x="285.28" y="662.4314">+isLocked: boolean</text><text fill="#000000" font-family="sans-serif" font-size="14" lengthAdjust="spacing" textLength="142.4131" x="285.28" y="678.7282">+failedAttempts: int</text><text fill="#000000" font-family="sans-serif" font-size="14" lengthAdjust="spacing" textLength="164.4453" x="285.28" y="695.0251">+lastLoginAtUtc: String</text><line style="stroke:#181818;stroke-width:0.5;" x1="280.28" x2="584.7927" y1="702.3269" y2="702.3269"/><text fill="#000000" font-family="sans-serif" font-size="14" lengthAdjust="spacing" textLength="294.5127" x="285.28" y="719.322">+authenticate(password: String): boolean</text><text fill="#000000" font-family="sans-serif" font-size="14" lengthAdjust="spacing" textLength="89.708" x="285.28" y="735.6189">+lock(): void</text></g><!--class AdminSession--><g class="entity" data-qualified-name="AdminSession" data-source-line="49" id="ent0007"><rect fill="#F1F1F1" height="145.7813" rx="2.5" ry="2.5" style="stroke:#181818;stroke-width:0.5;" width="267.4111" x="298.83" y="819.92"/><ellipse cx="379.1454" cy="835.92" fill="#ADD1B2" rx="11" ry="11" style="stroke:#181818;stroke-width:1;"/><path d="M382.1142,841.5606 Q381.5361,841.8575 380.8954,841.9981 Q380.2548,842.1544 379.5517,842.1544 Q377.0517,842.1544 375.7236,840.5138 Q374.4111,838.8575 374.4111,835.7325 Q374.4111,832.6075 375.7236,830.9513 Q377.0517,829.295 379.5517,829.295 Q380.2548,829.295 380.8954,829.4513 Q381.5517,829.6075 382.1142,829.9044 L382.1142,832.6231 Q381.4892,832.045 380.8954,831.7794 Q380.3017,831.4981 379.6767,831.4981 Q378.3329,831.4981 377.6454,832.5763 Q376.9579,833.6388 376.9579,835.7325 Q376.9579,837.8263 377.6454,838.9044 Q378.3329,839.9669 379.6767,839.9669 Q380.3017,839.9669 380.8954,839.7013 Q381.4892,839.42 382.1142,838.8419 L382.1142,841.5606 Z " fill="#000000"/><text fill="#000000" font-family="sans-serif" font-size="14" lengthAdjust="spacing" textLength="98.2803" x="399.6454" y="840.7667">AdminSession</text><line style="stroke:#181818;stroke-width:0.5;" x1="299.83" x2="565.2411" y1="851.92" y2="851.92"/><text fill="#000000" font-family="sans-serif" font-size="14" lengthAdjust="spacing" textLength="127.5176" x="304.83" y="868.9151">+sessionId: String</text><text fill="#000000" font-family="sans-serif" font-size="14" lengthAdjust="spacing" textLength="119.5605" x="304.83" y="885.212">+adminId: String</text><text fill="#000000" font-family="sans-serif" font-size="14" lengthAdjust="spacing" textLength="154.8135" x="304.83" y="901.5089">+createdAtUtc: String</text><text fill="#000000" font-family="sans-serif" font-size="14" lengthAdjust="spacing" textLength="152.5166" x="304.83" y="917.8057">+expiresAtUtc: String</text><line style="stroke:#181818;stroke-width:0.5;" x1="299.83" x2="565.2411" y1="925.1075" y2="925.1075"/><text fill="#000000" font-family="sans-serif" font-size="14" lengthAdjust="spacing" textLength="255.4111" x="304.83" y="942.1026">+isExpired(nowUtc: String): boolean</text><text fill="#000000" font-family="sans-serif" font-size="14" lengthAdjust="spacing" textLength="130.4229" x="304.83" y="958.3995">+invalidate(): void</text></g><!--class ContentUpdateRequest--><g class="entity" data-qualified-name="ContentUpdateRequest" data-source-line="58" id="ent0008"><rect fill="#F1F1F1" height="145.7813" rx="2.5" ry="2.5" style="stroke:#181818;stroke-width:0.5;" width="264.8818" x="75.1" y="306.08"/><ellipse cx="121.352" cy="322.08" fill="#ADD1B2" rx="11" ry="11" style="stroke:#181818;stroke-width:1;"/><path d="M124.3207,327.7206 Q123.7426,328.0175 123.102,328.1581 Q122.4613,328.3144 121.7582,328.3144 Q119.2582,328.3144 117.9301,326.6738 Q116.6176,325.0175 116.6176,321.8925 Q116.6176,318.7675 117.9301,317.1113 Q119.2582,315.455 121.7582,315.455 Q122.4613,315.455 123.102,315.6113 Q123.7582,315.7675 124.3207,316.0644 L124.3207,318.7831 Q123.6957,318.205 123.102,317.9394 Q122.5082,317.6581 121.8832,317.6581 Q120.5395,317.6581 119.852,318.7363 Q119.1645,319.7988 119.1645,321.8925 Q119.1645,323.9863 119.852,325.0644 Q120.5395,326.1269 121.8832,326.1269 Q122.5082,326.1269 123.102,325.8613 Q123.6957,325.58 124.3207,325.0019 L124.3207,327.7206 Z " fill="#000000"/><text fill="#000000" font-family="sans-serif" font-size="14" lengthAdjust="spacing" textLength="163.8779" x="141.852" y="326.9267">ContentUpdateRequest</text><line style="stroke:#181818;stroke-width:0.5;" x1="76.1" x2="338.9818" y1="338.08" y2="338.08"/><text fill="#000000" font-family="sans-serif" font-size="14" lengthAdjust="spacing" textLength="129.2197" x="81.1" y="355.0751">+requestId: String</text><text fill="#000000" font-family="sans-serif" font-size="14" lengthAdjust="spacing" textLength="119.5605" x="81.1" y="371.372">+adminId: String</text><text fill="#000000" font-family="sans-serif" font-size="14" lengthAdjust="spacing" textLength="172.2383" x="81.1" y="387.6689">+submittedAtUtc: String</text><text fill="#000000" font-family="sans-serif" font-size="14" lengthAdjust="spacing" textLength="146.5283" x="81.1" y="403.9657">+jsonPayload: String</text><text fill="#000000" font-family="sans-serif" font-size="14" lengthAdjust="spacing" textLength="169.9414" x="81.1" y="420.2626">+schemaVersion: String</text><line style="stroke:#181818;stroke-width:0.5;" x1="76.1" x2="338.9818" y1="427.5644" y2="427.5644"/><text fill="#000000" font-family="sans-serif" font-size="14" lengthAdjust="spacing" textLength="252.8818" x="81.1" y="444.5595">+validateAgainstSchema(): boolean</text></g><!--class ContentRepository--><g class="entity" data-qualified-name="ContentRepository" data-source-line="67" id="ent0009"><rect fill="#F1F1F1" height="137.75" rx="2.5" ry="2.5" style="stroke:#181818;stroke-width:0.5;" width="237.0732" x="7" y="35.46"/><ellipse cx="55.9111" cy="55.5928" fill="#ADD1B2" rx="11" ry="11" style="stroke:#181818;stroke-width:1;"/><path d="M58.8799,61.2334 Q58.3018,61.5303 57.6611,61.6709 Q57.0205,61.8272 56.3174,61.8272 Q53.8174,61.8272 52.4893,60.1866 Q51.1768,58.5303 51.1768,55.4053 Q51.1768,52.2803 52.4893,50.6241 Q53.8174,48.9678 56.3174,48.9678 Q57.0205,48.9678 57.6611,49.1241 Q58.3174,49.2803 58.8799,49.5772 L58.8799,52.2959 Q58.2549,51.7178 57.6611,51.4522 Q57.0674,51.1709 56.4424,51.1709 Q55.0986,51.1709 54.4111,52.2491 Q53.7236,53.3116 53.7236,55.4053 Q53.7236,57.4991 54.4111,58.5772 Q55.0986,59.6397 56.4424,59.6397 Q57.0674,59.6397 57.6611,59.3741 Q58.2549,59.0928 58.8799,58.5147 L58.8799,61.2334 Z " fill="#000000"/><text fill="#000000" font-family="sans-serif" font-size="12" font-style="italic" lengthAdjust="spacing" textLength="70.1602" x="106.7065" y="51.5987">&#171;persisted&#187;</text><text fill="#000000" font-family="sans-serif" font-size="14" lengthAdjust="spacing" textLength="130.751" x="76.4111" y="67.4239">ContentRepository</text><line style="stroke:#181818;stroke-width:0.5;" x1="8" x2="243.0732" y1="75.7256" y2="75.7256"/><text fill="#000000" font-family="sans-serif" font-size="14" lengthAdjust="spacing" textLength="147.6631" x="13" y="92.7207">+contentPath: String</text><text fill="#000000" font-family="sans-serif" font-size="14" lengthAdjust="spacing" textLength="130.6895" x="13" y="109.0176">+tempPath: String</text><line style="stroke:#181818;stroke-width:0.5;" x1="8" x2="243.0732" y1="116.3194" y2="116.3194"/><text fill="#000000" font-family="sans-serif" font-size="14" lengthAdjust="spacing" textLength="134.2988" x="13" y="133.3145">+readJson(): String</text><text fill="#000000" font-family="sans-serif" font-size="14" lengthAdjust="spacing" textLength="225.0732" x="13" y="149.6114">+writeAtomic(json: String): void</text><text fill="#000000" font-family="sans-serif" font-size="14" lengthAdjust="spacing" textLength="202.2959" x="13" y="165.9082">+getCurrentVersion(): String</text></g><!--class AuditLogEntry--><g class="entity" data-qualified-name="AuditLogEntry" data-source-line="75" id="ent0010"><rect fill="#F1F1F1" height="200.6094" rx="2.5" ry="2.5" style="stroke:#181818;stroke-width:0.5;" width="173.6289" x="674.72" y="278.67"/><ellipse cx="708.8054" cy="305.7872" fill="#ADD1B2" rx="11" ry="11" style="stroke:#181818;stroke-width:1;"/><path d="M711.7742,311.4278 Q711.1961,311.7247 710.5554,311.8653 Q709.9148,312.0216 709.2117,312.0216 Q706.7117,312.0216 705.3836,310.3809 Q704.0711,308.7247 704.0711,305.5997 Q704.0711,302.4747 705.3836,300.8184 Q706.7117,299.1622 709.2117,299.1622 Q709.9148,299.1622 710.5554,299.3184 Q711.2117,299.4747 711.7742,299.7716 L711.7742,302.4903 Q711.1492,301.9122 710.5554,301.6466 Q709.9617,301.3653 709.3367,301.3653 Q707.9929,301.3653 707.3054,302.4434 Q706.6179,303.5059 706.6179,305.5997 Q706.6179,307.6934 707.3054,308.7716 Q707.9929,309.8341 709.3367,309.8341 Q709.9617,309.8341 710.5554,309.5684 Q711.1492,309.2872 711.7742,308.7091 L711.7742,311.4278 Z " fill="#000000"/><text fill="#000000" font-family="sans-serif" font-size="12" font-style="italic" lengthAdjust="spacing" textLength="79.3945" x="736.9578" y="294.8087">&#171;immutable&#187;</text><text fill="#000000" font-family="sans-serif" font-size="12" font-style="italic" lengthAdjust="spacing" textLength="70.1602" x="741.575" y="308.7774">&#171;persisted&#187;</text><text fill="#000000" font-family="sans-serif" font-size="14" lengthAdjust="spacing" textLength="99.2168" x="727.0467" y="324.6026">AuditLogEntry</text><line style="stroke:#181818;stroke-width:0.5;" x1="675.72" x2="847.3489" y1="332.9044" y2="332.9044"/><text fill="#000000" font-family="sans-serif" font-size="14" lengthAdjust="spacing" textLength="112.7109" x="680.72" y="349.8995">+entryId: String</text><text fill="#000000" font-family="sans-serif" font-size="14" lengthAdjust="spacing" textLength="161.6289" x="680.72" y="366.1964">+timestampUtc: String</text><text fill="#000000" font-family="sans-serif" font-size="14" lengthAdjust="spacing" textLength="119.5605" x="680.72" y="382.4932">+adminId: String</text><text fill="#000000" font-family="sans-serif" font-size="14" lengthAdjust="spacing" textLength="126.3691" x="680.72" y="398.7901">+remoteIp: String</text><text fill="#000000" font-family="sans-serif" font-size="14" lengthAdjust="spacing" textLength="105.7725" x="680.72" y="415.087">+action: String</text><text fill="#000000" font-family="sans-serif" font-size="14" lengthAdjust="spacing" textLength="143.3154" x="680.72" y="431.3839">+beforeHash: String</text><text fill="#000000" font-family="sans-serif" font-size="14" lengthAdjust="spacing" textLength="131.3184" x="680.72" y="447.6807">+afterHash: String</text><text fill="#000000" font-family="sans-serif" font-size="14" lengthAdjust="spacing" textLength="109.3203" x="680.72" y="463.9776">+details: String</text><line style="stroke:#181818;stroke-width:0.5;" x1="675.72" x2="847.3489" y1="471.2794" y2="471.2794"/></g><!--class AuditLog--><g class="entity" data-qualified-name="AuditLog" data-source-line="86" id="ent0011"><rect fill="#F1F1F1" height="105.1563" rx="2.5" ry="2.5" style="stroke:#181818;stroke-width:0.5;" width="401.252" x="574.91" y="51.75"/><ellipse cx="738.2059" cy="71.8828" fill="#ADD1B2" rx="11" ry="11" style="stroke:#181818;stroke-width:1;"/><path d="M741.1746,77.5234 Q740.5965,77.8203 739.9559,77.9609 Q739.3153,78.1172 738.6121,78.1172 Q736.1121,78.1172 734.784,76.4766 Q733.4715,74.8203 733.4715,71.6953 Q733.4715,68.5703 734.784,66.9141 Q736.1121,65.2578 738.6121,65.2578 Q739.3153,65.2578 739.9559,65.4141 Q740.6121,65.5703 741.1746,65.8672 L741.1746,68.5859 Q740.5496,68.0078 739.9559,67.7422 Q739.3621,67.4609 738.7371,67.4609 Q737.3934,67.4609 736.7059,68.5391 Q736.0184,69.6016 736.0184,71.6953 Q736.0184,73.7891 736.7059,74.8672 Q737.3934,75.9297 738.7371,75.9297 Q739.3621,75.9297 739.9559,75.6641 Q740.5496,75.3828 741.1746,74.8047 L741.1746,77.5234 Z " fill="#000000"/><text fill="#000000" font-family="sans-serif" font-size="12" font-style="italic" lengthAdjust="spacing" textLength="70.1602" x="756.7059" y="67.8887">&#171;persisted&#187;</text><text fill="#000000" font-family="sans-serif" font-size="14" lengthAdjust="spacing" textLength="61.9678" x="760.8021" y="83.7139">AuditLog</text><line style="stroke:#181818;stroke-width:0.5;" x1="575.91" x2="975.162" y1="92.0156" y2="92.0156"/><text fill="#000000" font-family="sans-serif" font-size="14" lengthAdjust="spacing" textLength="142.1055" x="580.91" y="109.0107">+retentionYears: int</text><line style="stroke:#181818;stroke-width:0.5;" x1="575.91" x2="975.162" y1="116.3125" y2="116.3125"/><text fill="#000000" font-family="sans-serif" font-size="14" lengthAdjust="spacing" textLength="259.5742" x="580.91" y="133.3076">+append(entry: AuditLogEntry): void</text><text fill="#000000" font-family="sans-serif" font-size="14" lengthAdjust="spacing" textLength="389.252" x="580.91" y="149.6045">+exportSnapshot(fromUtc: String, toUtc: String): String</text></g><g class="entity" data-qualified-name="GMN20" data-source-line="103" id="ent0021"><path d="M278.94,76.63 L278.94,100.33 L244.52,104.33 L278.94,108.33 L278.94,132.0284 A0,0 0 0 0 278.94,132.0284 L540.1417,132.0284 A0,0 0 0 0 540.1417,132.0284 L540.1417,86.63 L530.1417,76.63 L278.94,76.63 A0,0 0 0 0 278.94,76.63" fill="#FEFFDD" style="stroke:#181818;stroke-width:0.5;"/><path d="M530.1417,76.63 L530.1417,86.63 L540.1417,86.63 L530.1417,76.63" fill="#FEFFDD" style="stroke:#181818;stroke-width:0.5;"/><text fill="#000000" font-family="sans-serif" font-size="13" lengthAdjust="spacing" textLength="223.3994" x="284.94" y="93.6969">ASR: atomic file update semantics</text><text fill="#000000" font-family="sans-serif" font-size="13" lengthAdjust="spacing" textLength="240.2017" x="284.94" y="108.8297">- write temp file then atomic rename</text><text fill="#000000" font-family="sans-serif" font-size="13" lengthAdjust="spacing" textLength="190.6899" x="284.94" y="123.9625">- prevent corruption on crash</text></g><g class="entity" data-qualified-name="GMN23" data-source-line="109" id="ent0024"><path d="M375.34,351.27 L375.34,374.97 L340.3,378.97 L375.34,382.97 L375.34,406.6684 A0,0 0 0 0 375.34,406.6684 L625.7316,406.6684 A0,0 0 0 0 625.7316,406.6684 L625.7316,361.27 L615.7316,351.27 L375.34,351.27 A0,0 0 0 0 375.34,351.27" fill="#FEFFDD" style="stroke:#181818;stroke-width:0.5;"/><path d="M615.7316,351.27 L615.7316,361.27 L625.7316,361.27 L615.7316,351.27" fill="#FEFFDD" style="stroke:#181818;stroke-width:0.5;"/><text fill="#000000" font-family="sans-serif" font-size="13" lengthAdjust="spacing" textLength="229.3916" x="381.34" y="368.3369">ASR: contract-first content updates</text><text fill="#000000" font-family="sans-serif" font-size="13" lengthAdjust="spacing" textLength="146.9419" x="381.34" y="383.4697">- explicit JSON schema</text><text fill="#000000" font-family="sans-serif" font-size="13" lengthAdjust="spacing" textLength="149.4365" x="381.34" y="398.6025">- server-side validation</text></g><g class="entity" data-qualified-name="GMN26" data-source-line="115" id="ent0027"><path d="M620.35,606.77 L620.35,645.6 L586.02,649.6 L620.35,653.6 L620.35,692.4341 A0,0 0 0 0 620.35,692.4341 L852.7206,692.4341 A0,0 0 0 0 852.7206,692.4341 L852.7206,616.77 L842.7206,606.77 L620.35,606.77 A0,0 0 0 0 620.35,606.77" fill="#FEFFDD" style="stroke:#181818;stroke-width:0.5;"/><path d="M842.7206,606.77 L842.7206,616.77 L852.7206,616.77 L842.7206,606.77" fill="#FEFFDD" style="stroke:#181818;stroke-width:0.5;"/><text fill="#000000" font-family="sans-serif" font-size="13" lengthAdjust="spacing" textLength="130.6538" x="626.35" y="623.8369">ASR: hardened auth</text><text fill="#000000" font-family="sans-serif" font-size="13" lengthAdjust="spacing" textLength="152.8325" x="626.35" y="638.9697">- &gt;=12 char passwords</text><text fill="#000000" font-family="sans-serif" font-size="13" lengthAdjust="spacing" textLength="211.3706" x="626.35" y="654.1025">- salted hashing (bcrypt/Argon2)</text><text fill="#000000" font-family="sans-serif" font-size="13" lengthAdjust="spacing" textLength="156.127" x="626.35" y="669.2353">- lockout after 5 failures</text><text fill="#000000" font-family="sans-serif" font-size="13" lengthAdjust="spacing" textLength="154.1401" x="626.35" y="684.3681">- session timeout policy</text></g><g class="entity" data-qualified-name="GMN29" data-source-line="123" id="ent0030"><path d="M883.11,351.27 L883.11,374.97 L848.82,378.97 L883.11,382.97 L883.11,406.6684 A0,0 0 0 0 883.11,406.6684 L1227.9611,406.6684 A0,0 0 0 0 1227.9611,406.6684 L1227.9611,361.27 L1217.9611,351.27 L883.11,351.27 A0,0 0 0 0 883.11,351.27" fill="#FEFFDD" style="stroke:#181818;stroke-width:0.5;"/><path d="M1217.9611,351.27 L1217.9611,361.27 L1227.9611,361.27 L1217.9611,351.27" fill="#FEFFDD" style="stroke:#181818;stroke-width:0.5;"/><text fill="#000000" font-family="sans-serif" font-size="13" lengthAdjust="spacing" textLength="184.1201" x="889.11" y="368.3369">ASR: audit logging/retention</text><text fill="#000000" font-family="sans-serif" font-size="13" lengthAdjust="spacing" textLength="323.8511" x="889.11" y="383.4697">- timestamp UTC, adminId, remoteIp, before/after</text><text fill="#000000" font-family="sans-serif" font-size="13" lengthAdjust="spacing" textLength="146.6309" x="889.11" y="398.6025">- retention &gt;= 2 years</text></g><!--reverse link GameSession to QuestionBank--><g class="link" data-entity-1="ent0002" data-entity-2="ent0003" data-link-type="aggregation" data-source-line="92" id="lnk12"><path codeLine="92" d="M1490.6818,212.1393 C1469.3418,247.8293 1451.78,277.21 1432.26,309.86" fill="none" id="GameSession-backto-QuestionBank" style="stroke:#181818;stroke-width:1;"/><polygon fill="none" points="1496.84,201.84,1490.3278,204.9369,1490.6818,212.1393,1497.194,209.0424,1496.84,201.84" style="stroke:#181818;stroke-width:1;"/><text fill="#000000" font-family="sans-serif" font-size="13" lengthAdjust="spacing" textLength="29.7832" x="1479.54" y="244.7369">uses</text><text fill="#000000" font-family="sans-serif" font-size="13" lengthAdjust="spacing" textLength="8.271" x="1484.3188" y="221.623">1</text><text fill="#000000" font-family="sans-serif" font-size="13" lengthAdjust="spacing" textLength="8.271" x="1428.0612" y="299.0328">1</text></g><!--reverse link QuestionBank to Question--><g class="link" data-entity-1="ent0003" data-entity-2="ent0004" data-link-type="composition" data-source-line="93" id="lnk13"><path codeLine="93" d="M1391.54,460.11 C1391.54,499.28 1391.54,536.46 1391.54,576.31" fill="none" id="QuestionBank-backto-Question" style="stroke:#181818;stroke-width:1;"/><polygon fill="#181818" points="1391.54,448.11,1387.54,454.11,1391.54,460.11,1395.54,454.11,1391.54,448.11" style="stroke:#181818;stroke-width:1;"/><text fill="#000000" font-family="sans-serif" font-size="13" lengthAdjust="spacing" textLength="55.0278" x="1392.54" y="522.3469">contains</text><text fill="#000000" font-family="sans-serif" font-size="13" lengthAdjust="spacing" textLength="8.271" x="1383.1419" y="468.0867">1</text><text fill="#000000" font-family="sans-serif" font-size="13" lengthAdjust="spacing" textLength="23.0356" x="1367.446" y="565.6829">1..*</text></g><!--link GameSession to Feedback--><g class="link" data-entity-1="ent0002" data-entity-2="ent0005" data-link-type="dependency" data-source-line="94" id="lnk14"><path codeLine="94" d="M1582.15,201.84 C1594.59,245.34 1607.0908,289.0111 1617.2108,324.4111" fill="none" id="GameSession-to-Feedback" style="stroke:#181818;stroke-width:1;"/><polygon fill="#181818" points="1618.86,330.18,1620.2322,320.4272,1617.4857,325.3726,1612.5403,322.6261,1618.86,330.18" style="stroke:#181818;stroke-width:1;"/><text fill="#000000" font-family="sans-serif" font-size="13" lengthAdjust="spacing" textLength="59.96" x="1594.54" y="244.7369">produces</text><text fill="#000000" font-family="sans-serif" font-size="13" lengthAdjust="spacing" textLength="8.271" x="1575.8938" y="221.623">1</text><text fill="#000000" font-family="sans-serif" font-size="13" lengthAdjust="spacing" textLength="23.0356" x="1592.322" y="319.3397">0..*</text></g><!--link AdminUser to AdminSession--><g class="link" data-entity-1="ent0006" data-entity-2="ent0007" data-link-type="dependency" data-source-line="96" id="lnk15"><path codeLine="96" d="M432.54,743.17 C432.54,768.54 432.54,789.67 432.54,813.71" fill="none" id="AdminUser-to-AdminSession" style="stroke:#181818;stroke-width:1;"/><polygon fill="#181818" points="432.54,819.71,436.54,810.71,432.54,814.71,428.54,810.71,432.54,819.71" style="stroke:#181818;stroke-width:1;"/><text fill="#000000" font-family="sans-serif" font-size="13" lengthAdjust="spacing" textLength="48.3247" x="433.54" y="785.9869">creates</text><text fill="#000000" font-family="sans-serif" font-size="13" lengthAdjust="spacing" textLength="8.271" x="424.2444" y="762.9801">1</text><text fill="#000000" font-family="sans-serif" font-size="13" lengthAdjust="spacing" textLength="23.0356" x="408.4102" y="808.8493">0..*</text></g><!--link ContentUpdateRequest to AdminUser--><g class="link" data-entity-1="ent0008" data-entity-2="ent0006" data-link-type="dependency" data-source-line="97" id="lnk16"><path codeLine="97" d="M268.13,452.31 C294.81,484.17 322.6277,517.38 351.0177,551.28" fill="none" id="ContentUpdateRequest-to-AdminUser" style="stroke:#181818;stroke-width:1;"/><polygon fill="#181818" points="354.87,555.88,352.1582,546.4118,351.6597,552.0467,346.0249,551.5482,354.87,555.88" style="stroke:#181818;stroke-width:1;"/><text fill="#000000" font-family="sans-serif" font-size="13" lengthAdjust="spacing" textLength="82.5957" x="328.54" y="522.3469">submittedBy</text><text fill="#000000" font-family="sans-serif" font-size="13" lengthAdjust="spacing" textLength="8.271" x="265.3593" y="471.8354">1</text><text fill="#000000" font-family="sans-serif" font-size="13" lengthAdjust="spacing" textLength="8.271" x="340.6278" y="545.2023">1</text></g><!--link ContentRepository to ContentUpdateRequest--><g class="link" data-entity-1="ent0009" data-entity-2="ent0008" data-link-type="dependency" data-source-line="98" id="lnk17"><path codeLine="98" d="M146.02,173.43 C158.16,213.81 171.8123,259.1941 184.1523,300.2341" fill="none" id="ContentRepository-to-ContentUpdateRequest" style="stroke:#181818;stroke-width:1;"/><polygon fill="#181818" points="185.88,305.98,187.1191,296.2094,184.4403,301.1918,179.4579,298.513,185.88,305.98" style="stroke:#181818;stroke-width:1;"/><text fill="#000000" font-family="sans-serif" font-size="13" lengthAdjust="spacing" textLength="50.6226" x="167.54" y="244.7369">persists</text><text fill="#000000" font-family="sans-serif" font-size="13" lengthAdjust="spacing" textLength="8.271" x="139.7338" y="193.4026">1</text><text fill="#000000" font-family="sans-serif" font-size="13" lengthAdjust="spacing" textLength="23.0356" x="159.6175" y="295.1301">0..*</text></g><!--reverse link AuditLog to AuditLogEntry--><g class="link" data-entity-1="ent0011" data-entity-2="ent0010" data-link-type="composition" data-source-line="99" id="lnk18"><path codeLine="99" d="M772.2557,169.2443 C770.5057,203.3843 768.77,237.19 766.66,278.21" fill="none" id="AuditLog-backto-AuditLogEntry" style="stroke:#181818;stroke-width:1;"/><polygon fill="#181818" points="772.87,157.26,768.5681,163.0474,772.2557,169.2443,776.5576,163.4569,772.87,157.26" style="stroke:#181818;stroke-width:1;"/><text fill="#000000" font-family="sans-serif" font-size="13" lengthAdjust="spacing" textLength="45.062" x="770.54" y="244.7369">entries</text><text fill="#000000" font-family="sans-serif" font-size="13" lengthAdjust="spacing" textLength="8.271" x="764.0333" y="177.0782">1</text><text fill="#000000" font-family="sans-serif" font-size="13" lengthAdjust="spacing" textLength="23.0356" x="743.213" y="267.6692">0..*</text></g><!--link AuditLogEntry to AdminUser--><g class="link" data-entity-1="ent0010" data-entity-2="ent0006" data-link-type="dependency" data-source-line="100" id="lnk19"><path codeLine="100" d="M674.41,453.68 C664.04,462.35 653.57,471.03 643.54,479.28 C613.06,504.33 584.5393,527.4144 553.6893,552.1744" fill="none" id="AuditLogEntry-to-AdminUser" style="stroke:#181818;stroke-width:1;"/><polygon fill="#181818" points="549.01,555.93,558.5326,553.4162,552.9094,552.8004,553.5252,547.1771,549.01,555.93" style="stroke:#181818;stroke-width:1;"/><text fill="#000000" font-family="sans-serif" font-size="13" lengthAdjust="spacing" textLength="33.5093" x="604.54" y="522.3469">actor</text><text fill="#000000" font-family="sans-serif" font-size="13" lengthAdjust="spacing" textLength="23.0356" x="643.5523" y="456.1076">0..*</text><text fill="#000000" font-family="sans-serif" font-size="13" lengthAdjust="spacing" textLength="8.271" x="549.6316" y="545.2561">1</text></g><?plantuml-src XLPDR-Cs4BthLmnoycxZpIP0BqPgm1jisrq4RHet1NgaoR7DHY9LaehZ5ltldI7rBGKB170yUXg-cNdpQF-iJIcSA43cmljD24xlge1Vf3LR_G_2nooBJ-0dKU0MlTVMmByPm7S-VVcYLh2bjymX1eDm0TKcF0NPZylAEJJXjmfzu9UCmjSLQ1FYIz8wxBu54Ie_IRfuju8NgnK73BwsgJZU_1_1rQxGOMFy2Tr2n8-E8c5_H5Gx8PyPYqQrQVzh2csIVHBc6MvlItHUUwfflKvrlt30cZx1gbHYhkhS2jNdVS2EjcvRC2f0sih4QhaV4rQ9mzzD7mVDBvqjoZ1e-z5gYTJCUohXDiNNwH2QXwpRDCoYz7wlPPM7Sp_w8dBDHJAndRKv2jEHQtgQo6b_bx9tI8eM91Tnm7vESH9EeNgmLAaVrRjHXJPF7jtS20G_7BAk26f8ehtOigH49-lKpy8V-rZjxwryHZNWjnSwvn46f1xwLer49jpRWpQJuOeg74dIMd9NcgDwGklbpkcugT1YYTzUgPbYfSDPlU5hgHtwILpxp_69MXXxwZqRijIcF-GXrpjh0XNx58N-Y55_YRDBNxx9EUtb7Ek_l3KFuipBCdX17h4GVqothM6vEGXjVDX6tAmkQzQFM5glWtNdEJ7917eGOI0Iri4uHcrNNttod2vwSfh815jekU1QUjtjBVvTSi2wdbw6JW-LqgorpoP4fheegY1sEHBJ6Tx8i66FWwOj2w8enrATZiDXOSdcom5CXb6hTxWdQnxlZzW7TEEWma0RvDykQwu6XznwElHF5AvREb6MRCsnmjMmBxscajgj2riZId-qOR4dz-lLVGd13gNU4UlVPHVN5s2No_WviFuLaAVuR11ZqFi8_l3XVOSdBAk8vJZ9lLokuU9ZXBSskGAoQbMHCsTPPtGZzC0Uw82uypwRtSJsrUkBddEke5swJ-TikWoZ0sSp4zKqD9-rWsoxK1CTw7O5F3QD7Jx5Q_0SIzATTLbcI93WzE4OmEwdkvjjje-4ZNi6Up9hIDSkU5f_zc6VBI7k8l3k9WXRTFCEhH_DXa2bmnTA3Nm9LcKS8Fr9HuhEI7V0HDwWCsXEOiIJTrJ2Sg-T3r3RIKsEEP5ESorrWA_RNt-1P6iKfjhffyJIQuLGMnh_0dYBGDkmTEgHhqw32lWQecph7wvlG58Kcgk8Z_OYf-4Js1z9-h3OINSkmzN67QovUKS0lfbi5I2kD7mFV0jMBjAkBoDWKs58QQcAyzly-jEkPyKXEk90r-VXgjrrojqQ5JpzVdS9jJzTGkDAbv2SvohoeXVQbwbGk84psqLBvNy0?></g></svg>