<svg xmlns="http://www.w3.org/2000/svg" xmlns:xlink="http://www.w3.org/1999/xlink" contentStyleType="text/css" data-diagram-type="DESCRIPTION" height="636px" preserveAspectRatio="none" style="width:1539px;height:636px;background:#FFFFFF;" version="1.1" viewBox="0 0 1539 636" width="1539px" zoomAndPan="magnify"><?plantuml 1.2026.3beta5?><defs/><g><g class="title" data-source-line="1"><text fill="#000000" font-family="sans-serif" font-size="14" font-weight="700" lengthAdjust="spacing" textLength="272.46" x="630.0879" y="22.9951">Collaboration S1: Play and Answer</text></g><!--entity EndUser--><g class="entity" data-qualified-name="EndUser" data-source-line="3" id="ent0002"><ellipse cx="291.7078" cy="51.2969" fill="#F1F1F1" rx="8" ry="8" style="stroke:#181818;stroke-width:0.5;"/><path d="M291.7078,59.2969 L291.7078,86.2969 M278.7078,67.2969 L304.7078,67.2969 M291.7078,86.2969 L278.7078,101.2969 M291.7078,86.2969 L304.7078,101.2969" fill="none" style="stroke:#181818;stroke-width:0.5;"/><text fill="#000000" font-family="sans-serif" font-size="14" lengthAdjust="spacing" textLength="58.5156" x="262.45" y="115.792">EndUser</text></g><!--entity WebUI--><g class="entity" data-qualified-name="WebUI" data-source-line="4" id="ent0003"><rect fill="#F1F1F1" height="46.2969" rx="2.5" ry="2.5" style="stroke:#181818;stroke-width:0.5;" width="85.7188" x="248.84" y="196.0869"/><rect fill="#F1F1F1" height="10" style="stroke:#181818;stroke-width:0.5;" width="15" x="314.5588" y="201.0869"/><rect fill="#F1F1F1" height="2" style="stroke:#181818;stroke-width:0.5;" width="4" x="312.5588" y="203.0869"/><rect fill="#F1F1F1" height="2" style="stroke:#181818;stroke-width:0.5;" width="4" x="312.5588" y="207.0869"/><text fill="#000000" font-family="sans-serif" font-size="14" lengthAdjust="spacing" textLength="45.7188" x="263.84" y="229.082">WebUI</text></g><!--entity GameController--><g class="entity" data-qualified-name="GameController" data-source-line="5" id="ent0004"><rect fill="#F1F1F1" height="46.2969" rx="2.5" ry="2.5" style="stroke:#181818;stroke-width:0.5;" width="150.8516" x="147.28" y="319.3869"/><rect fill="#F1F1F1" height="10" style="stroke:#181818;stroke-width:0.5;" width="15" x="278.1316" y="324.3869"/><rect fill="#F1F1F1" height="2" style="stroke:#181818;stroke-width:0.5;" width="4" x="276.1316" y="326.3869"/><rect fill="#F1F1F1" height="2" style="stroke:#181818;stroke-width:0.5;" width="4" x="276.1316" y="330.3869"/><text fill="#000000" font-family="sans-serif" font-size="14" lengthAdjust="spacing" textLength="110.8516" x="162.28" y="352.382">GameController</text></g><!--entity QuestionService--><g class="entity" data-qualified-name="QuestionService" data-source-line="6" id="ent0005"><rect fill="#F1F1F1" height="46.2969" rx="2.5" ry="2.5" style="stroke:#181818;stroke-width:0.5;" width="154.3584" x="213.52" y="442.6869"/><rect fill="#F1F1F1" height="10" style="stroke:#181818;stroke-width:0.5;" width="15" x="347.8784" y="447.6869"/><rect fill="#F1F1F1" height="2" style="stroke:#181818;stroke-width:0.5;" width="4" x="345.8784" y="449.6869"/><rect fill="#F1F1F1" height="2" style="stroke:#181818;stroke-width:0.5;" width="4" x="345.8784" y="453.6869"/><text fill="#000000" font-family="sans-serif" font-size="14" lengthAdjust="spacing" textLength="114.3584" x="228.52" y="475.682">QuestionService</text></g><!--entity ContentRepository--><g class="entity" data-qualified-name="ContentRepository" data-source-line="7" id="ent0006"><path d="M215.33,575.9769 C215.33,565.9769 290.7055,565.9769 290.7055,565.9769 C290.7055,565.9769 366.081,565.9769 366.081,575.9769 L366.081,601.2738 C366.081,611.2738 290.7055,611.2738 290.7055,611.2738 C290.7055,611.2738 215.33,611.2738 215.33,601.2738 L215.33,575.9769" fill="#F1F1F1" style="stroke:#181818;stroke-width:0.5;"/><path d="M215.33,575.9769 C215.33,585.9769 290.7055,585.9769 290.7055,585.9769 C290.7055,585.9769 366.081,585.9769 366.081,575.9769" fill="none" style="stroke:#181818;stroke-width:0.5;"/><text fill="#000000" font-family="sans-serif" font-size="14" lengthAdjust="spacing" textLength="130.751" x="225.33" y="602.972">ContentRepository</text></g><g class="entity" data-qualified-name="GMN23" data-source-line="30" id="ent0024"><path d="M940.77,206.6669 L940.77,215.2369 L334.89,219.2369 L940.77,223.2369 L940.77,231.7997 A0,0 0 0 0 940.77,231.7997 L1524.6357,231.7997 A0,0 0 0 0 1524.6357,231.7997 L1524.6357,216.6669 L1514.6357,206.6669 L940.77,206.6669 A0,0 0 0 0 940.77,206.6669" fill="#FEFFDD" style="stroke:#181818;stroke-width:0.5;"/><path d="M1514.6357,206.6669 L1514.6357,216.6669 L1524.6357,216.6669 L1514.6357,206.6669" fill="#FEFFDD" style="stroke:#181818;stroke-width:0.5;"/><text fill="#000000" font-family="sans-serif" font-size="13" lengthAdjust="spacing" textLength="562.8657" x="946.77" y="223.7338">Scenario mapping: EndUser plays game, loads questions, answers, receives feedback.</text></g><!--link EndUser to WebUI--><g class="link" data-entity-1="ent0002" data-entity-2="ent0003" data-link-type="dependency" data-source-line="10" id="lnk7"><path d="M318.58,119.5169 C325.73,133.8769 330.33,150.5369 325.7,166.0869 C322.56,176.6569 319.9806,182.1684 313.8506,190.8884" fill="none" id="EndUser-to-WebUI" style="stroke:#181818;stroke-width:1;"/><polygon fill="#181818" points="310.4,195.7969,318.8482,190.7345,313.2755,191.7065,312.3035,186.1337,310.4,195.7969" style="stroke:#181818;stroke-width:1;"/></g><!--link EndUser to WebUI--><g class="link" data-entity-1="ent0002" data-entity-2="ent0003" data-link-type="dependency" data-source-line="16" id="lnk11"><path d="M262.09,107.3669 C250.94,118.8469 239.56,133.3569 233.7,149.0869 C227.09,166.8569 235.0476,179.4758 250.1676,191.8558" fill="none" id="EndUser-to-WebUI-1" style="stroke:#181818;stroke-width:1;"/><polygon fill="#181818" points="254.81,195.6569,250.3805,186.8603,250.9414,192.4893,245.3124,193.0501,254.81,195.6569" style="stroke:#181818;stroke-width:1;"/><text fill="#000000" font-family="sans-serif" font-size="13" lengthAdjust="spacing" textLength="86.9946" x="234.7" y="162.1538">1. StartGame</text></g><!--link WebUI to GameController--><g class="link" data-entity-1="ent0003" data-entity-2="ent0004" data-link-type="dependency" data-source-line="11" id="lnk8"><path d="M321.87,242.8669 C336.02,256.3169 347.78,273.7569 337.7,289.3869 C328.38,303.8469 319.3479,311.7068 303.8379,319.3068" fill="none" id="WebUI-to-GameController" style="stroke:#181818;stroke-width:1;"/><polygon fill="#181818" points="298.45,321.9469,308.292,321.5786,302.9399,319.7468,304.7718,314.3947,298.45,321.9469" style="stroke:#181818;stroke-width:1;"/></g><!--link WebUI to GameController--><g class="link" data-entity-1="ent0003" data-entity-2="ent0004" data-link-type="dependency" data-source-line="17" id="lnk12"><path d="M248.52,220.2869 C208.89,222.9169 152.14,233.7869 123.7,272.3869 C109.59,291.5469 122.0378,304.7168 146.2978,316.3268" fill="none" id="WebUI-to-GameController-1" style="stroke:#181818;stroke-width:1;"/><polygon fill="#181818" points="151.71,318.9169,145.3185,311.4237,147.1999,316.7585,141.865,318.6399,151.71,318.9169" style="stroke:#181818;stroke-width:1;"/><text fill="#000000" font-family="sans-serif" font-size="13" lengthAdjust="spacing" textLength="56.9575" x="124.7" y="285.4538">2. start()</text></g><!--link WebUI to GameController--><g class="link" data-entity-1="ent0003" data-entity-2="ent0004" data-link-type="dependency" data-source-line="24" id="lnk19"><path d="M248.56,242.7369 C237.83,250.5769 227.69,260.4669 221.7,272.3869 C214.49,286.7669 214.17,299.1094 216.39,313.2594" fill="none" id="WebUI-to-GameController-2" style="stroke:#181818;stroke-width:1;"/><polygon fill="#181818" points="217.32,319.1869,219.8767,309.6757,216.545,314.2473,211.9734,310.9156,217.32,319.1869" style="stroke:#181818;stroke-width:1;"/><text fill="#000000" font-family="sans-serif" font-size="13" lengthAdjust="spacing" textLength="110.5317" x="222.7" y="285.4538">9. SubmitAnswer</text></g><!--link GameController to QuestionService--><g class="link" data-entity-1="ent0004" data-entity-2="ent0005" data-link-type="dependency" data-source-line="12" id="lnk9"><path d="M298.53,362.2869 C314.77,369.9369 329.96,380.6669 339.7,395.6869 C350.04,411.6069 341.9936,425.0385 327.0236,438.4185" fill="none" id="GameController-to-QuestionService" style="stroke:#181818;stroke-width:1;"/><polygon fill="#181818" points="322.55,442.4169,331.9259,439.4016,326.278,439.0849,326.5947,433.4369,322.55,442.4169" style="stroke:#181818;stroke-width:1;"/></g><!--link GameController to QuestionService--><g class="link" data-entity-1="ent0004" data-entity-2="ent0005" data-link-type="dependency" data-source-line="18" id="lnk13"><path d="M146.98,347.9669 C82.75,354.6269 6,371.2569 39.7,412.6869 C61.33,439.2669 141.7996,452.1421 207.2496,458.6621" fill="none" id="GameController-to-QuestionService-1" style="stroke:#181818;stroke-width:1;"/><polygon fill="#181818" points="213.22,459.2569,204.6608,454.3844,208.2446,458.7612,203.8678,462.345,213.22,459.2569" style="stroke:#181818;stroke-width:1;"/><text fill="#000000" font-family="sans-serif" font-size="13" lengthAdjust="spacing" textLength="135.1162" x="40.7" y="408.7538">3. loadQuestionBank</text></g><!--link GameController to QuestionService--><g class="link" data-entity-1="ent0004" data-entity-2="ent0005" data-link-type="dependency" data-source-line="25" id="lnk20"><path d="M214.85,365.9169 C211.26,380.0769 209.27,398.3469 216.7,412.6869 C222.93,424.6769 228.4063,431.0637 239.4663,438.8137" fill="none" id="GameController-to-QuestionService-2" style="stroke:#181818;stroke-width:1;"/><polygon fill="#181818" points="244.38,442.2569,239.3049,433.8163,240.2852,439.3876,234.714,440.368,244.38,442.2569" style="stroke:#181818;stroke-width:1;"/><text fill="#000000" font-family="sans-serif" font-size="13" lengthAdjust="spacing" textLength="117.3237" x="217.7" y="408.7538">10. submitAnswer</text></g><!--link QuestionService to ContentRepository--><g class="link" data-entity-1="ent0005" data-entity-2="ent0006" data-link-type="dependency" data-source-line="13" id="lnk10"><path d="M307.15,489.3869 C314.89,502.6769 321.64,519.9569 317.7,535.9769 C315.17,546.2969 313.1258,551.6155 308.1158,560.4655" fill="none" id="QuestionService-to-ContentRepository" style="stroke:#181818;stroke-width:1;"/><polygon fill="#181818" points="305.16,565.6869,313.0747,559.8253,307.6232,561.3357,306.1128,555.8842,305.16,565.6869" style="stroke:#181818;stroke-width:1;"/></g><!--link QuestionService to ContentRepository--><g class="link" data-entity-1="ent0005" data-entity-2="ent0006" data-link-type="dependency" data-source-line="19" id="lnk14"><path d="M261.22,489.2869 C252.61,497.5769 244.29,507.7269 239.7,518.9769 C232.7,536.1669 240.2241,548.9299 254.3341,561.5899" fill="none" id="QuestionService-to-ContentRepository-1" style="stroke:#181818;stroke-width:1;"/><polygon fill="#181818" points="258.8,565.5969,254.7725,556.6092,255.0784,562.2577,249.4298,562.5637,258.8,565.5969" style="stroke:#181818;stroke-width:1;"/><text fill="#000000" font-family="sans-serif" font-size="13" lengthAdjust="spacing" textLength="72.8965" x="240.7" y="532.0438">4. readJson</text></g><!--link WebUI to WebUI--><g class="link" data-entity-1="ent0003" data-entity-2="ent0003" data-link-type="dependency" data-source-line="20" id="lnk15"><path d="M334.94,216.3869 C353.59,216.1469 369.56,217.0969 369.56,219.2369 C369.56,221.3769 359.5895,222.4009 340.9395,222.1709" fill="none" id="WebUI-to-WebUI" style="stroke:#181818;stroke-width:1;"/><polygon fill="#181818" points="334.94,222.0969,343.89,226.2076,339.9396,222.1585,343.9886,218.2082,334.94,222.0969" style="stroke:#181818;stroke-width:1;"/><text fill="#000000" font-family="sans-serif" font-size="13" lengthAdjust="spacing" textLength="93.8691" x="375.56" y="223.8038">5. RenderIntro</text></g><!--link WebUI to WebUI--><g class="link" data-entity-1="ent0003" data-entity-2="ent0003" data-link-type="dependency" data-source-line="21" id="lnk16"><path d="M334.82,214.9669 C391.58,211.9869 474.56,213.4169 474.56,219.2369 C474.56,225.0669 397.5717,226.8015 340.8117,223.8215" fill="none" id="WebUI-to-WebUI-1" style="stroke:#181818;stroke-width:1;"/><polygon fill="#181818" points="334.82,223.5069,343.5979,227.9732,339.8131,223.769,344.0173,219.9842,334.82,223.5069" style="stroke:#181818;stroke-width:1;"/><text fill="#000000" font-family="sans-serif" font-size="13" lengthAdjust="spacing" textLength="103.708" x="480.56" y="223.8038">6. nextQuestion</text></g><!--link WebUI to WebUI--><g class="link" data-entity-1="ent0003" data-entity-2="ent0003" data-link-type="dependency" data-source-line="23" id="lnk18"><path d="M334.98,214.1269 C422.3,208.0569 589.56,209.7569 589.56,219.2369 C589.56,228.7169 428.2855,230.8436 340.9655,224.7636" fill="none" id="WebUI-to-WebUI-2" style="stroke:#181818;stroke-width:1;"/><polygon fill="#181818" points="334.98,224.3469,343.6804,228.9624,339.9679,224.6942,344.2361,220.9817,334.98,224.3469" style="stroke:#181818;stroke-width:1;"/><text fill="#000000" font-family="sans-serif" font-size="13" lengthAdjust="spacing" textLength="121.5449" x="595.56" y="223.8038">8. RenderQuestion</text></g><!--link WebUI to WebUI--><g class="link" data-entity-1="ent0003" data-entity-2="ent0003" data-link-type="dependency" data-source-line="27" id="lnk22"><path d="M335.05,213.5569 C451.24,204.1469 722.56,206.0369 722.56,219.2369 C722.56,232.4369 457.2204,234.8212 341.0304,225.4112" fill="none" id="WebUI-to-WebUI-3" style="stroke:#181818;stroke-width:1;"/><polygon fill="#181818" points="335.05,224.9269,343.6977,229.6403,340.0337,225.3305,344.3435,221.6664,335.05,224.9269" style="stroke:#181818;stroke-width:1;"/><text fill="#000000" font-family="sans-serif" font-size="13" lengthAdjust="spacing" textLength="134.291" x="728.56" y="223.8038">12. RenderFeedback</text></g><!--link WebUI to QuestionService--><g class="link" data-entity-1="ent0003" data-entity-2="ent0005" data-link-type="dependency" data-source-line="22" id="lnk17"><path d="M334.8,240.7669 C346.98,248.8269 358.8,259.3269 365.7,272.3869 C394.86,327.5069 396.93,357.5969 367.7,412.6869 C361.27,424.8069 355.5832,431.2554 344.2332,438.9654" fill="none" id="WebUI-to-QuestionService" style="stroke:#181818;stroke-width:1;"/><polygon fill="#181818" points="339.27,442.3369,348.9624,440.5885,343.406,439.5273,344.4671,433.9709,339.27,442.3369" style="stroke:#181818;stroke-width:1;"/><text fill="#000000" font-family="sans-serif" font-size="13" lengthAdjust="spacing" textLength="96.0273" x="389.7" y="347.1038">7. getQuestion</text></g><!--link QuestionService to QuestionService--><g class="link" data-entity-1="ent0005" data-entity-2="ent0005" data-link-type="dependency" data-source-line="26" id="lnk21"><path d="M368.3,454.4069 C388.05,455.1569 402.88,458.9669 402.88,465.8269 C402.88,472.6969 394.0456,476.2662 374.2956,477.0262" fill="none" id="QuestionService-to-QuestionService" style="stroke:#181818;stroke-width:1;"/><polygon fill="#181818" points="368.3,477.2569,377.4472,480.9078,373.2963,477.0646,377.1395,472.9138,368.3,477.2569" style="stroke:#181818;stroke-width:1;"/><text fill="#000000" font-family="sans-serif" font-size="13" lengthAdjust="spacing" textLength="129.2573" x="408.88" y="470.3938">11. evaluateAnswer</text></g><?plantuml-src ZPDlJuCm4CRVzrFSEpMPAFF_4atcecOc9Zgo-Fg06pQ35jjkkc_lWP1jb1XvGJZwt3s_NdjEkfnWelCSOstGIQqW2aVmckC6KAKmLlQBZ12OE6tWGQLpos6YYr8hKWxUAPvFT-8dB6YYbJDSSa_ujY9RbO_8h6L28aM7CThAN3aMpAZKLhB9HeW3kAqU65kh4rbJsTzVeY60u-Exnhj-rt77Up-i5Ls8Jbnh_k1v8Min8mid43agFQO62KOG1gn0uog6bh0BoB9X0BQI7Hvvj1uioyy2o3McxS8zggM_XPuTSEfv08OmVRPQRNbQsei0PgHICjFAtr-_343HjskjjW8VyIg0Z7gKRQdhrigNUDsvuIQkuaAwvXB-fqNXARTqDwcdFprPV5wqndo5ZfeyZpmSjkYFH6cCoL88fHs1aTc70xrexcEKa48ZDHHObb9betPgeEIXif3nBWRrELhuR4ZiW8UjikKFGmd9DL-oHMCJ27Q5oke7?></g></svg>