<svg xmlns="http://www.w3.org/2000/svg" xmlns:xlink="http://www.w3.org/1999/xlink" contentStyleType="text/css" data-diagram-type="STATE" height="758px" preserveAspectRatio="none" style="width:203px;height:758px;background:#FFFFFF;" version="1.1" viewBox="0 0 203 758" width="203px" zoomAndPan="magnify"><?plantuml 1.2026.3beta5?><defs/><g><g class="entity" data-qualified-name="Observing" id="ent0002"><rect fill="#F1F1F1" height="50" rx="12.5" ry="12.5" style="stroke:#181818;stroke-width:0.5;" width="91.5039" x="20.03" y="87"/><line style="stroke:#181818;stroke-width:0.5;" x1="20.03" x2="111.5339" y1="113.2969" y2="113.2969"/><text fill="#000000" font-family="sans-serif" font-size="14" lengthAdjust="spacing" textLength="71.5039" x="30.03" y="104.9951">Observing</text></g><g class="entity" data-qualified-name="Monitoring" id="ent0003"><rect fill="#F1F1F1" height="50" rx="12.5" ry="12.5" style="stroke:#181818;stroke-width:0.5;" width="94.8672" x="18.34" y="214"/><line style="stroke:#181818;stroke-width:0.5;" x1="18.34" x2="113.2072" y1="240.2969" y2="240.2969"/><text fill="#000000" font-family="sans-serif" font-size="14" lengthAdjust="spacing" textLength="74.8672" x="28.34" y="231.9951">Monitoring</text></g><g class="entity" data-qualified-name="Operating" id="ent0004"><rect fill="#F1F1F1" height="50" rx="12.5" ry="12.5" style="stroke:#181818;stroke-width:0.5;" width="89.9932" x="20.78" y="341"/><line style="stroke:#181818;stroke-width:0.5;" x1="20.78" x2="110.7732" y1="367.2969" y2="367.2969"/><text fill="#000000" font-family="sans-serif" font-size="14" lengthAdjust="spacing" textLength="69.9932" x="30.78" y="358.9951">Operating</text></g><g class="entity" data-qualified-name="Testing" id="ent0005"><rect fill="#F1F1F1" height="50" rx="12.5" ry="12.5" style="stroke:#181818;stroke-width:0.5;" width="71.5977" x="29.98" y="468"/><line style="stroke:#181818;stroke-width:0.5;" x1="29.98" x2="101.5777" y1="494.2969" y2="494.2969"/><text fill="#000000" font-family="sans-serif" font-size="14" lengthAdjust="spacing" textLength="51.5977" x="39.98" y="485.9951">Testing</text></g><g class="entity" data-qualified-name="Administering" id="ent0006"><rect fill="#F1F1F1" height="50" rx="12.5" ry="12.5" style="stroke:#181818;stroke-width:0.5;" width="117.5557" x="7" y="595"/><line style="stroke:#181818;stroke-width:0.5;" x1="7" x2="124.5557" y1="621.2969" y2="621.2969"/><text fill="#000000" font-family="sans-serif" font-size="14" lengthAdjust="spacing" textLength="97.5557" x="17" y="612.9951">Administering</text></g><g class="start_entity" data-qualified-name=".start." data-source-line="7" id="ent0002"><ellipse cx="65.78" cy="16" fill="#222222" rx="10" ry="10" style="stroke:#222222;stroke-width:1;"/></g><g class="end_entity" data-qualified-name=".end." data-source-line="12" id="ent0008"><ellipse cx="65.78" cy="733" fill="none" rx="11" ry="11" style="stroke:#222222;stroke-width:1;"/><ellipse cx="65.78" cy="733" fill="#222222" rx="6" ry="6" style="stroke:#222222;stroke-width:1;"/></g><!--link *start* to Observing--><g class="link" data-entity-1="ent0002" data-entity-2="ent0002" data-link-type="dependency" data-source-line="7" id="lnk3"><path d="M65.78,26.36 C65.78,40.29 65.78,60.95 65.78,80.65" fill="none" id="*start*-to-Observing" style="stroke:#181818;stroke-width:1;"/><polygon fill="#181818" points="65.78,86.65,69.78,77.65,65.78,81.65,61.78,77.65,65.78,86.65" style="stroke:#181818;stroke-width:1;"/></g><!--link Observing to Monitoring--><g class="link" data-entity-1="ent0002" data-entity-2="ent0003" data-link-type="dependency" data-source-line="8" id="lnk4"><path d="M65.78,137.4 C65.78,159.42 65.78,185.66 65.78,207.66" fill="none" id="Observing-to-Monitoring" style="stroke:#181818;stroke-width:1;"/><polygon fill="#181818" points="65.78,213.66,69.78,204.66,65.78,208.66,61.78,204.66,65.78,213.66" style="stroke:#181818;stroke-width:1;"/><text fill="#000000" font-family="sans-serif" font-size="13" lengthAdjust="spacing" textLength="94.4722" x="66.78" y="180.0669">stopObserving</text></g><!--link Monitoring to Operating--><g class="link" data-entity-1="ent0003" data-entity-2="ent0004" data-link-type="dependency" data-source-line="9" id="lnk5"><path d="M65.78,264.4 C65.78,286.42 65.78,312.66 65.78,334.66" fill="none" id="Monitoring-to-Operating" style="stroke:#181818;stroke-width:1;"/><polygon fill="#181818" points="65.78,340.66,69.78,331.66,65.78,335.66,61.78,331.66,65.78,340.66" style="stroke:#181818;stroke-width:1;"/><text fill="#000000" font-family="sans-serif" font-size="13" lengthAdjust="spacing" textLength="95.272" x="66.78" y="307.0669">startOperating</text></g><!--link Operating to Testing--><g class="link" data-entity-1="ent0004" data-entity-2="ent0005" data-link-type="dependency" data-source-line="10" id="lnk6"><path d="M65.78,391.4 C65.78,413.42 65.78,439.66 65.78,461.66" fill="none" id="Operating-to-Testing" style="stroke:#181818;stroke-width:1;"/><polygon fill="#181818" points="65.78,467.66,69.78,458.66,65.78,462.66,61.78,458.66,65.78,467.66" style="stroke:#181818;stroke-width:1;"/><text fill="#000000" font-family="sans-serif" font-size="13" lengthAdjust="spacing" textLength="78.1904" x="66.78" y="434.0669">startTesting</text></g><!--link Testing to Administering--><g class="link" data-entity-1="ent0005" data-entity-2="ent0006" data-link-type="dependency" data-source-line="11" id="lnk7"><path d="M65.78,518.4 C65.78,540.42 65.78,566.66 65.78,588.66" fill="none" id="Testing-to-Administering" style="stroke:#181818;stroke-width:1;"/><polygon fill="#181818" points="65.78,594.66,69.78,585.66,65.78,589.66,61.78,585.66,65.78,594.66" style="stroke:#181818;stroke-width:1;"/><text fill="#000000" font-family="sans-serif" font-size="13" lengthAdjust="spacing" textLength="120.8657" x="66.78" y="561.0669">startAdministering</text></g><!--link Administering to *end*--><g class="link" data-entity-1="ent0006" data-entity-2="ent0008" data-link-type="dependency" data-source-line="12" id="lnk9"><path d="M65.78,645.36 C65.78,669.23 65.78,698.46 65.78,715.71" fill="none" id="Administering-to-*end*" style="stroke:#181818;stroke-width:1;"/><polygon fill="#181818" points="65.78,721.71,69.78,712.71,65.78,716.71,61.78,712.71,65.78,721.71" style="stroke:#181818;stroke-width:1;"/><text fill="#000000" font-family="sans-serif" font-size="13" lengthAdjust="spacing" textLength="118.6631" x="66.78" y="688.0669">stopAdministering</text></g><?plantuml-src Aov9B4bLy4ygJYqgoynBvoe6yttpyp9ByeiG0lu5gKM99GX-I6en4iyn9JSpBxEu91MiWojQArP1LzSEoLGu2ooEC5t1Ig6u9By0eH192cm2p5gmmiIY4eGx458WXL3tm9J1d0SJ1Yb1SIHC8QhBKPM0D86y0d4ZYXm0?></g></svg>